<svg id="Layer_2" data-name="Layer 2" xmlns="http://www.w3.org/2000/svg" viewBox="0 0 200 200"><title>a</title><path d="M141.24,53.33l17,21.09a.77.77,0,0,1-.1.93L156,77l-6.21-7.65L147.76,71l6.2,7.64L148.48,83l-3.1-3.82-2.07,1.65,3.1,3.83-5.48,4.44-6.09-7.75-2.07,1.76,6.1,7.65-5.38,4.34-3.1-3.82-2.07,1.65,3.11,3.82L126,101.08l-6.21-7.65-2.06,1.66,6.2,7.65-1.14.93L105.06,81.55l35.26-28.33a.65.65,0,0,1,.92.11ZM59.17,68.83,78.5,53.43l70.91,88.49-19.22,15.4ZM53.69,42.68l2,.83,2,.93h0L65,47.64,76.12,52.5l-8.89,7.13-8.89,7.14-2.28-12-1.54-7.85h0l-.42-2.07ZM98.55,123l-2.69,2.28-6.2-7.76-2.07,1.66,6.21,7.75-5.48,4.34-3.1-3.83-2.07,1.66,3.1,3.82-5.48,4.35-6.1-7.65-2.06,1.65,6.1,7.65-5.38,4.44-3.1-3.93-2.07,1.77,3.1,3.82-5.48,4.34-6.2-7.65-2.07,1.65,6.2,7.65-4,3.21a.66.66,0,0,1-.93-.1L41.8,133a.76.76,0,0,1,.11-.93l39-31.22Z" fill="#fff" fill-rule="evenodd"/></svg>