<svg id="Layer_2" data-name="Layer 2" xmlns="http://www.w3.org/2000/svg" viewBox="0 0 200 200"><title>a</title><path d="M165.8,63v80.71H135.18v-.13l-2.25.13-2.65-.13v.13H69.72v-.13l-2.25.13-2.65-.13v.13H34.2V63ZM34.2,154.73V148c0-.13,0-.13.14-.13H35v3.44h.81v-3.44h1.85v1.72h.66v-1.72h1.85v3.44h.67v-3.44h1.85v1.72h.66v-1.72l1.86-.14v3.58H46V147.7h1.85v1.73h.66V147.7h1.86v3.58H51V147.7h1.86v1.73h.66V147.7h1.86v3.45h.79V147.7h1.72l.14,1.73h.66V147.7h1.85v3.45h.67V147.7h1.85v1.73h.66V147.7h1.86v3.45h.8V147.7h1.72v3.45h.79V147.7h1.86v1.73h.66V147.7H73.3v3.45H74V147.7h1.85v1.73h.67V147.7h1.85v3.45h.8V147.7h1.72v1.73h.8V147.7H83.5v3.58h.66V147.7H86v1.73h.66V147.7h1.85v3.58h.67l.14-3.58,1.71.14v1.72h.8v-1.72H93.7v3.44h.66v-3.44h1.86v1.72h.67v-1.72h1.45v3.44H99v-3.44h1.46v3.44h.79v-3.44h1.85v1.72h.66v-1.72h1.86v3.44h.66v-3.44h1.86v1.72h.66v-1.72l1.85-.14v3.58h.8V147.7h1.85v1.73H114V147.7h1.85v3.58h.67V147.7h1.85v1.73H119V147.7h1.85v3.45h.8V147.7h1.85v1.73h.67V147.7H126v3.45h.66V147.7h1.85v1.73h.67V147.7h1.85v3.45h.8V147.7h1.72v3.45h.8V147.7h1.85v1.73h.67V147.7h1.85v3.45h.67V147.7h1.85v1.73h.66V147.7h1.86v3.45h.8V147.7h1.85v1.73h.66V147.7H149v3.58h.66V147.7h1.85v1.73h.67V147.7H154v3.58h.79V147.7l1.86.14-.13,1.72h.8v-1.72h1.85v3.44h.67v-3.44h1.85v1.72h.66v-1.72h1.86v3.44h.66l.13-3.44h.66c.14,0,.14,0,.14.13v6.76Zm.26-13.65h6.63a.46.46,0,0,0,.27-.13v-.8H37.92v-.66h3.44v-1.86H39.63V137h1.73v-1.85H37.92v-.66h3.44V132.6H39.63v-.8h1.73V130H37.92v-.66h3.44v-1.86H39.63v-.66h1.73v-1.86H37.92v-.66h3.44v-1.86H39.63v-.79h1.73l.13-1.72-3.57-.13v-.67h3.57v-1.85H39.63l.14-.67h1.72v-1.85H37.92v-.66h3.57v-1.86H39.77v-.79l1.72.13v-1.86H38v-.79h3.45v-.4h0v-.93h0V107l-3.45.13v-.79h3.45v-1.85H39.77v-.66h1.72V102H37.92v-.67h3.57V99.47H39.77l-.14-.79h1.86V97H37.92v-.79h3.57l-.13-1.86H39.63v-.66h1.73V91.78H37.92v-.66h3.44V89.27H39.63V88.6h1.73V86.75H37.92V86h3.44V84.1H39.63v-.67h1.73V81.58H37.92v-.66h3.44V79.06H39.63V78.4h1.73V76.94H37.92v-.66h3.44V74.69H37.92V74h3.44V72.17H39.63v-.66h1.73V69.65H37.92V69h3.44V67.13H39.63v-.79h1.73V64.49H37.92v-.67h3.44V63h-6.9ZM34.2,45.27H165.8V58.91H34.2Zm105.23,6h5.69v5.7h-5.69Zm7,0h5.7v5.7h-5.7Zm7,0h5.7v5.7h-5.7ZM52,74H81v29.15H52ZM87.87,90.72h29v29.16h-29Zm35.92,16.83h29v29.16h-29Z" fill="#fff" fill-rule="evenodd"/></svg>