<svg id="Layer_2" data-name="Layer 2" xmlns="http://www.w3.org/2000/svg" viewBox="0 0 200 200"><title>a</title><path d="M132.5,55.51s19.27,11.48,12,40.05" fill="none" stroke="#fff" stroke-linecap="round" stroke-linejoin="round" stroke-width="7.44"/><path d="M143.13,36.94s31.78,18.92,19.76,66" fill="none" stroke="#fff" stroke-linecap="round" stroke-linejoin="round" stroke-width="7.44"/><path d="M131.66,116.22,124.51,92.3l5.67-4.56-5.37-18L118,70.5l-7.25-24.24a2.75,2.75,0,0,0-3.43-1.85l-.85.25a2.75,2.75,0,0,0-1.85,3.43,2.78,2.78,0,0,1-1,3L63.86,79.76a2.74,2.74,0,0,1-.82.41L30.28,90a2.75,2.75,0,0,0-1.85,3.43l1.43,4.79-4.19,1.25a5.36,5.36,0,0,0-3.59,6.65l2.32,7.73A5.34,5.34,0,0,0,31,117.4l4.2-1.25,1.37,4.58A2.75,2.75,0,0,0,40,122.58l4.79-1.43.4-.12,10.05,13.88,4.07-1.22,14.41,20.67,16.8-5L75,129l3.18-.95-9.07-14.17,3-.9a2.84,2.84,0,0,1,1-.11l50,3.18a2.76,2.76,0,0,1,2.47,2v0A2.75,2.75,0,0,0,129,119.9l.85-.25A2.75,2.75,0,0,0,131.66,116.22Zm-92,4.73L30.5,91.16l2.87-.88,9.13,29.79Zm82.42-6.34L103.91,52.82l2.88-.85,18.14,61.8Z" fill="#fff"/></svg>