<svg xmlns="http://www.w3.org/2000/svg" xmlns:xlink="http://www.w3.org/1999/xlink" viewBox="0 0 500 550"><defs><style>.cls-1{isolation:isolate;}.cls-2{fill:aqua;}.cls-3{fill:url(#Áåçûìÿííûé_ãðàäèåíò_78);}.cls-4{fill:url(#Áåçûìÿííûé_ãðàäèåíò_67);}.cls-13,.cls-5{fill:#556313;}.cls-6{fill:#485237;}.cls-17,.cls-7{fill:#3a4013;}.cls-10,.cls-11,.cls-12,.cls-13,.cls-14,.cls-17,.cls-20,.cls-21,.cls-22,.cls-23,.cls-24,.cls-26,.cls-27,.cls-7,.cls-9{fill-rule:evenodd;}.cls-7{opacity:0.3;}.cls-8{fill:url(#Áåçûìÿííûé_ãðàäèåíò_78-2);}.cls-9{fill:#cab3da;}.cls-10{fill:url(#Áåçûìÿííûé_ãðàäèåíò_136);}.cls-11{fill:url(#Áåçûìÿííûé_ãðàäèåíò_136-2);}.cls-12{fill:#93c000;}.cls-14{fill:#464013;}.cls-15,.cls-23{fill:#fff;}.cls-16{fill:#78952e;}.cls-18,.cls-20{fill:#53345f;}.cls-19{fill:url(#Áåçûìÿííûé_ãðàäèåíò_78-3);}.cls-20{opacity:0.5;}.cls-20,.cls-21{mix-blend-mode:multiply;}.cls-21{fill:url(#Áåçûìÿííûé_ãðàäèåíò_36);}.cls-22{fill:#939513;}.cls-24,.cls-25{fill:#684d73;}.cls-26{fill:#b5d13d;}.cls-27{fill:#f4e600;}.cls-28{fill:url(#Áåçûìÿííûé_ãðàäèåíò_141);}.cls-29{fill:url(#Áåçûìÿííûé_ãðàäèåíò_141-2);}.cls-30{mix-blend-mode:color;}.cls-31{mix-blend-mode:color-burn;fill:url(#radial-gradient);}</style><linearGradient id="Áåçûìÿííûé_ãðàäèåíò_78" x1="161.33" y1="297.72" x2="234.67" y2="297.72" gradientUnits="userSpaceOnUse"><stop offset="0" stop-color="#486600"/><stop offset="1" stop-color="#819f00"/></linearGradient><linearGradient id="Áåçûìÿííûé_ãðàäèåíò_67" x1="252.43" y1="272.36" x2="252.43" y2="61.81" gradientUnits="userSpaceOnUse"><stop offset="0" stop-color="#81ab00"/><stop offset="1" stop-color="#637500"/></linearGradient><linearGradient id="Áåçûìÿííûé_ãðàäèåíò_78-2" x1="248.89" y1="525.71" x2="248.89" y2="276.16" xlink:href="#Áåçûìÿííûé_ãðàäèåíò_78"/><linearGradient id="Áåçûìÿííûé_ãðàäèåíò_136" x1="273.49" y1="222.7" x2="273.49" y2="156.13" gradientUnits="userSpaceOnUse"><stop offset="0" stop-color="#ffff18"/><stop offset="1" stop-color="#ff7400"/></linearGradient><linearGradient id="Áåçûìÿííûé_ãðàäèåíò_136-2" x1="197.06" y1="230.17" x2="197.06" y2="178.12" xlink:href="#Áåçûìÿííûé_ãðàäèåíò_136"/><linearGradient id="Áåçûìÿííûé_ãðàäèåíò_78-3" x1="311.21" y1="429.71" x2="311.21" y2="291.19" xlink:href="#Áåçûìÿííûé_ãðàäèåíò_78"/><linearGradient id="Áåçûìÿííûé_ãðàäèåíò_36" x1="215.31" y1="401.42" x2="291.08" y2="401.42" gradientUnits="userSpaceOnUse"><stop offset="0" stop-color="#fff"/><stop offset="1" stop-color="#9579a7"/></linearGradient><linearGradient id="Áåçûìÿííûé_ãðàäèåíò_141" x1="192.91" y1="138.66" x2="192.91" y2="47.55" gradientUnits="userSpaceOnUse"><stop offset="0" stop-color="#818300"/><stop offset="1" stop-color="#486618"/></linearGradient><linearGradient id="Áåçûìÿííûé_ãðàäèåíò_141-2" x1="271.87" y1="128.67" x2="271.87" y2="22.19" xlink:href="#Áåçûìÿííûé_ãðàäèåíò_141"/><radialGradient id="radial-gradient" cx="93.41" cy="257.68" r="250.03" gradientUnits="userSpaceOnUse"><stop offset="0" stop-color="#00d5ff"/><stop offset="0.18" stop-color="#29dcff"/><stop offset="0.59" stop-color="#90edff"/><stop offset="1" stop-color="#fff"/></radialGradient></defs><title>BG</title><g class="cls-1"><g id="space_background" data-name="space background"><path class="cls-2" d="M327.92,387s1.82-31-1.88-45.59l-.09-.55h-.05a22,22,0,0,0-.91-2.74c-5.07-12.42-17.05,2.16-17.05,2.16s6.85-15.62,3.47-12.12c-5.47-5.48-11.26-10.11-15.52-14.07-6.87-6.41-15.21-22.89-15.21-22.89l0,0a22.66,22.66,0,0,0-3.48-4.79h0s-5.44-7-11.31-10.26l2.39-10.43a157.08,157.08,0,0,0,23.4-10.87c11.6-6.63,20.91-14.22,24-21,7.15-15.58-10.64-58.45-12.51-74.31v0h0a18.44,18.44,0,0,1-.14-2.76c.46-12.84,6.58-39.26,35.35-47.09a35.77,35.77,0,0,0,7.75-22.83c-.15-14-4-28-9.45-27.24s-9.05,25-15.94,43-23.18,30-29.43,31.1h0s-12.86-6.83-36.54-5.72l.16,0c0-.78-4.09-69,20.35-95.86,4.13-.43,17.92-2.1,18.38-14.5,0,0-7.88,2.41-13.15,7.14-31.89,21.22-28.08,97.11-27.7,103.37A120,120,0,0,0,213,137.53c-.52-5.53-6.49-62.95-32.75-84.53-2.74-3.87-6.88-8.45-15.93-4,0,0,9.57,7.53,16.22,8.19C205.52,80,210.9,137.37,211,138c0,0-16,7.23-23,12a44.64,44.64,0,0,1-4.57-2.65c-.62-.4-1.29-.85-2-1.35-1.41-1-3-2.18-4.65-3.57-.83-.7-1.68-1.44-2.55-2.24l-1.31-1.24a69.21,69.21,0,0,1-7.89-9.13c-.43-.59-.85-1.19-1.27-1.81a65.55,65.55,0,0,1-5.67-10.36c-.67-1.53,3.72-3.12,3.16-4.78,0,0-9.89,2.17-11.85,8.51a19.78,19.78,0,0,0-.51,2.14c-.06.38-.12.77-.16,1.18a21.34,21.34,0,0,0-.12,2.59q0,.68.06,1.41c.25,3.38,2.59,10.46,4.68,15.26,0,0,1.44.16,3.76.64l1.9.42c1.36.32,2.91.73,4.58,1.25,4.17,1.29,7,1.16,11.6,4.06,1.36.87,3.36.85,4.63,1.89a32.61,32.61,0,0,1,5.74,6,74.91,74.91,0,0,0-.79,9.73c0,.44,0,.91,0,1.35v0a35.24,35.24,0,0,0,.31,4.17l0,0-.92,8.69a14.58,14.58,0,0,0-6,.14l5.06,7.09c-1.55,10.34-1.62,25.49,8.24,35.26h0c-.23,1.95-1.93,4.78-3.67,8-2.39,4.36-4.87,9.45-3.89,14.06,1.54,7.29,26.62,24.36,49.27,26.92a52.72,52.72,0,0,0,6.72.38c3.08,0,5.15.27,8.77-.38l.18,3.73h0a122.25,122.25,0,0,1-12.57,8c-2.59,1.36-4.56,2.34-4.66,2.39h0s-6.58,3.21-9,6.4-10.4,19.45-20.58,22.56h0a.15.15,0,0,0-.07,0c-.33-.18-1.93-1-4.19-2.4,0-.13,0-.25,0-.38l-.52,0-1.05-.65c-9.66-6.92-18.88-19.14-19-19.32h0s5.36-4.88,7.23-10.48,3.86-11.15,3.86-11.15l-10.49,5.71c.18-.53,3.88-10.36,2.65-16.47-1.2-5.9-2.05-10.4-2.54-10.86,0,0-2.27-2.23-2.27-2.23-.25,2.22-2,6.5-2.49,8.46a8.19,8.19,0,0,1-.28,1c-.88,2.77-1.1,5.06-3.31,9.09,0,0-2.52-11.79-10.25-9.58,0,0,.06.43.15,1.19.06.5.13,1.14.21,1.9.11,1.13.23,2.51.32,4s.15,3.16.16,4.84a42.28,42.28,0,0,1-.63,8.07c-.34,1.78-.61,3.38-.8,4.81a42.84,42.84,0,0,0-.44,5.78,8.59,8.59,0,0,0,.46,3.11c.69,1.52,5.91,2.85,5.91,2.85a1,1,0,0,0,0,.11c.36,1.56.74,3.08,1.14,4.57l.1.39h0c6,22.13,16,37.52,23.62,46.71h0l.36.44.09.1.23.28h0a41.25,41.25,0,0,0,12,9.64c2.34-4.34,1.33-8.72,2.11-12.89a37.89,37.89,0,0,0,10.51-6.74A136.83,136.83,0,0,0,226.5,325l.18,1.44c.34,2.57.74,5.2,1.13,7.73.53,3.37,1.05,6.57,1.42,9.22.27,2,.47,3.65.52,4.86,0,.19,0,.36,0,.52a3.38,3.38,0,0,1,0,.45h0l-.17.2.15.11c0,.59-.12,1.27-.26,2.1q-.5,2.92-1.76,7.82c-.74,2.91-1.7,6.36-2.82,10.27l-.21.15.12.16c-.74,2.57-1.55,5.31-2.43,8.29-1,3.3-2.07,6.87-3.23,10.66l-1,3.32-1,3.11c-.55,1.82-1.12,3.66-1.69,5.54l-2.05,6.79c-5.54,18.67-10.84,38.55-12.26,50.49a5.88,5.88,0,0,0-2.83-.59,209.71,209.71,0,0,0,2.76,27.19h0l.11.57c3.13,19.65,7.69,37.5,7.69,37.53h0c-15.13-1.3-19.37,5.51-19.37,5.51l0,2.6,27.32-1.3.49-2-.39-2h0l.17-.49h0l6.81-25.93.42-.31-.26-.33,2-7.63c-.49-1-1-2-1.46-3h0c1.36-4,3.07-8.52,4.91-13.06.26-.65.53-1.3.8-2,1.34-3.24,2.73-6.49,4.09-9.6l.82-1.84q1.22-2.74,2.36-5.27l.75-1.64c3.44-7.51,6-12.81,6-12.81l9.63.8c1.61,3.07,3.14,6.45,4.6,10s2.82,7.35,4.1,11.23c.33,1,.64,1.95.95,2.93.62,2,1.23,3.94,1.81,5.92.29,1,.57,2,.85,3,.56,2,1.1,4,1.61,5.95s1,3.94,1.49,5.88l0,.06,2.68,13.92c-.21.43-.32.7-.33.72l.5.18L277,527.11h0l-1,3.91v1.41h28.14V531c-7.59-7.11-18.88-5.31-18.89-5.31h0s1-2.65,2.3-6.81c2.59-7.83,6.55-20.55,7.65-28h.08v-.54c1.48-11.11.52-26.33.52-26.33-.67.22-1.33.48-2,.75-1.08-16.09-3.18-35.3-4.58-46.82-.12-1.07-.24-2.05-.35-3l-2.28-26.5,0-.52c-.26-4.58-.51-9.35-.79-14.19-.14-2.41-.29-4.85-.45-7.28s-.33-4.87-.53-7.28c-.24-3-.48-6.62-.72-10.56-.05-1-.11-2-.17-3-.17-3.07-.34-6.3-.5-9.59v0c4.34,7.76,9.84,14.38,14.5,20.48,13.73,21.9,19,37.31,19,37.31-2.45,1.61-10.23,16.79-4.27,24.17l3.92-7.23a32.29,32.29,0,0,0,.6,5.76c1.26,5.61,5.37,13.22,5.37,13.22A16,16,0,0,0,328,411.62L343.75,422s-.87-9.48-5.09-16.69S328.77,391.25,327.92,387Z"/><path class="cls-3" d="M234.67,287.77l-3.09,34.46s-4.52,5.87-14.27,14.41c-8.33,7.3-15.24,8.14-15.24,8.14C178.31,337.57,167.63,294,167.63,294s-5.2-1.33-5.88-2.85a8.58,8.58,0,0,1-.42-3.11,56,56,0,0,1,1.35-10.59c1.61-7.74,0-20,0-20,6.69.53,9,10.8,9,10.8A58.28,58.28,0,0,0,176.24,258a8.22,8.22,0,0,0,.29-1,25.94,25.94,0,0,0,1.25-6.3.22.22,0,0,1,0,.07,23.08,23.08,0,0,1,6,10.86c1.17,6.11-2.64,15.94-2.83,16.47l7.25-5.71a22.57,22.57,0,0,1-.67,11.15c-1.93,5.6-7.34,10.48-7.34,10.48,2.94,11.42,24.63,22.75,24.63,22.75,10.21-3.11,18.43-19.34,20.82-22.56S234.67,287.77,234.67,287.77Z"/><path class="cls-4" d="M351.41,86.88a36.16,36.16,0,0,1-8,22.83c-28.86,7.83-35.26,34.25-35.85,47.09a18.08,18.08,0,0,0,.1,2.77v0c1.69,15.85,19,58.73,11.71,74.31-7.82,16.61-53.27,38.26-77.71,38.45A50.85,50.85,0,0,1,235,272c-22.63-2.55-46.09-18-47.55-25.26-.93-4.61,1.61-9.7,4-14.06,1.77-3.19,3.51-6,3.76-8,.59-4.61-4.61-43.44-5.67-50.13a32.12,32.12,0,0,1-.38-5.2v0c0-.44,0-.91,0-1.35a76.8,76.8,0,0,1,.89-9.73c-10.42-14.69-33.38-17.35-33.38-17.35-9.34-21.9,4.55-28,4.55-28A66.67,66.67,0,0,0,192.6,150c52.87-35.67,103.49-16.3,103.49-16.3,6.25-1.06,22.68-13.21,29.76-31.1S334,62.65,339.47,61.85,351.41,72.86,351.41,86.88Z"/><path class="cls-5" d="M252.44,271.18l-.65,9.68s7.71,3.71,16.72-2.1l3.13-13S258.6,270.28,252.44,271.18Z"/><path class="cls-6" d="M195.21,224.68s5.62,10,8.18,9.73,4.27-4.72,4.27-4.72l-10.92-5Z"/><path class="cls-7" d="M319.39,233.89c-7.82,16.62-53.28,38.27-77.71,38.46A52.77,52.77,0,0,1,235,272c10.62-.49,30.74-1.36,56.59-18,45.18-29.12,11.14-39.49,11.14-39.49s-21.07,21.29-52.25,7.09c0,0-19.37-15.9-29.39-14.57s-9.66,22.28-13.38,27.44-15.46-1.54-15.46-1.54l-.76-.23c1.78-3.2,3.51-6,3.77-8,.59-4.61-4.61-43.45-5.67-50.13a32.21,32.21,0,0,1-.38-5.2c.55,1.75,3.72,4.55,18.5,4.14,21.39-.55,79.07-28.33,88.43-39.81,0,0,4,21.84,11.59,25.88v0C309.37,175.44,326.71,218.31,319.39,233.89Z"/><path class="cls-8" d="M295.54,486.45c-1.05,16.83-9.59,39.26-9.59,39.26h-8.29s-2.43-17.63-7.21-38.08l0-.06c-3.62-15.5-8.61-32.62-14.93-44.91l-9.62-.8S232,469.56,225.63,488c-.89,2.54-1.63,4.89-2.18,7a222.88,222.88,0,0,0-5.88,30.7h-6.68s-8.54-49.41-8.81-61.42c-.21-10.1,6.36-34.23,13.23-56.57l2.12-6.79c.59-1.88,1.18-3.72,1.75-5.54,8-25.09,12.81-41.12,13.09-46.19a8.23,8.23,0,0,0,0-1c-.21-6.41-4.34-26.24-3.6-35.16V313c.59-6.89,3.53-17.2,5.06-22.24.57-1.84.95-3,.95-3s15.7-7.71,17.35-10.42c0,0,13.55,1.61,17.13-1.2,0,0,14.39,11.22,15.2,16.7.51,3.51,1,22.17,1.69,40.06,0,1,.06,2.07.11,3.11.33,8.77.71,17.12,1.14,23.17.67,9.66,1,19.6,1.46,28.75.4,8.84.82,17,1.6,23.47.21,1.69.47,3.91.74,6.53C293.05,435.71,296.47,471.8,295.54,486.45Z"/><path class="cls-9" d="M270.45,487.63s12.18-18.9,26.7-23.61c0,0,.8,15.23-.8,26.34s-10.41,35.35-10.41,35.35,11.31-1.8,18.82,5.31H276.62l1-3.91Z"/><path class="cls-9" d="M199.68,457.62s10.82-1.74,27.37,33.38l-9.48,34.71.37,2-27.84.7s4.31-6.81,19.43-5.51C209.53,522.91,200,483.79,199.68,457.62Z"/><path class="cls-9" d="M167.63,294.05a17.89,17.89,0,0,0,12.56-.07s13.21,17.85,24.63,22.75c0,0,7.93,20.11-2.74,39.54C202.08,356.27,177,336.64,167.63,294.05Z"/><path class="cls-10" d="M251.79,220.48s16.52,5,28.54,0,18.56-16.67,19.43-22.84c1.6-11.41-7-40.25-18-41.45S234.09,174.49,251.79,220.48Z"/><path class="cls-11" d="M195.21,224.68s6.27,7.41,12.45,5c0,0,.89-31.64-17.6-51.57C190.06,178.12,179.18,208.66,195.21,224.68Z"/><path class="cls-12" d="M273,392.86c-1.88,13.38-7.18,25.53-18.87,30.71-14.7,6.54-33.05-7.35-34.91-28.18,8-25.09,12.81-41.12,13.09-46.19a8.23,8.23,0,0,0,0-1c-.21-6.41-4.34-26.24-3.6-35.16V313c.59-6.89,3.53-17.2,5.06-22.24,4.71-1.14,18.09-3.53,28-.57.59.19,1.16.38,1.71.62a16.89,16.89,0,0,1,5.41,3.17c7.82,7-.95,41.52,2.79,62.07C273.47,366.11,274.78,380,273,392.86Z"/><path class="cls-9" d="M221.47,388.2s19.6,15.7,67.27,0l2,26.78s-1.21-2.39-7.62,0-27.64,27.68-27.64,27.68l-9.62-.8s-23.46-15.1-28.45-40.93Z"/><path class="cls-13" d="M213.3,235.57a59.43,59.43,0,0,0,12.15-1.34,61.64,61.64,0,0,0,12.68-4.06l2.94,1.12s-8.14,4-10.41,8.28c0,0-1.34,1.34-6.41,1.74S213.3,235.57,213.3,235.57Z"/><path class="cls-14" d="M232.15,237.56s2-5.63,5.86-4.55Z"/><path class="cls-14" d="M215.64,248.72a7.78,7.78,0,0,0,3.54,3.54c2.53,1.2,9.71,3.27,23.19-.34s23.94-16.7,23.94-16.7h2.8s-2.51-1.82-7.4,0l3.06.53A47.77,47.77,0,0,1,239.2,251C218.9,255.53,215.64,248.72,215.64,248.72Z"/><path class="cls-15" d="M276.16,172.71a19.44,19.44,0,0,1,5.49,6.31l5.4-4.51s-3.53-6.11-7.14-6.53Z"/><polygon class="cls-15" points="194.61 192.04 197.06 196.84 198.88 195.91 195.94 190.57 194.61 192.04"/><path class="cls-16" d="M247,200.85s-4.66-46.91,42.33-39.35c0,0-4.09-8.19-12.37-7.52S245.79,166.93,247,200.85Z"/><path class="cls-16" d="M187.91,186.29s9.15-7.27,15.48,15.76c0,0-4.92-20.83-14-28.55Z"/><path class="cls-6" d="M257.29,221.73a57.45,57.45,0,0,0,20.43,1.75c10.62-1.2,19.3-18.33,19.3-18.33S284.62,226.79,257.29,221.73Z"/><path class="cls-17" d="M340.68,64.65c-3.39-.73-5.34,13.36-3.87,25s4.54,15,6.94,15.63,7.1-11.41,6.33-21.12C349.18,72.86,344.29,65.43,340.68,64.65Z"/><path class="cls-18" d="M240.29,324.65a32.3,32.3,0,0,1-11.4-1.78l.2-.49c.18.08,18.51,7.6,42.87-9.2l.3.44C259.35,322.52,248.09,324.65,240.29,324.65Z"/><path class="cls-18" d="M249.24,354.3c-11.46,0-17.07-4.83-17.15-4.9l.35-.4c.13.11,12.48,10.71,38.31,0l.2.48C262.21,353.08,255,354.3,249.24,354.3Z"/><path class="cls-18" d="M252,378.05c-19.09,0-24.74-7.77-25-8.2l.43-.3c.1.13,9.83,13.42,46.38,5.29l.12.51A101.26,101.26,0,0,1,252,378.05Z"/><path class="cls-5" d="M319.05,393.79s-10.58,15.76-6.28,24.17l6.28-7.91.63-16.26Z"/><path class="cls-19" d="M283.78,291.19c-3.45,1.79-7.06,9.8-4.12,26.89s14,29.24,21.9,39.93,17.62,30,17.49,35.78-1.2,17.09,0,22.7,3.61,13.22,3.61,13.22,10.54-8.41,6.8-20L343.75,422s.94-9.48-3.2-16.69S330.8,391.25,330,387s.27-37-6.68-47.67-17.76-18.82-24.57-25.23S283.78,291.19,283.78,291.19Z"/><path class="cls-9" d="M319.05,393.79s5.34-6.41,10.95-6.81c0,0,2.54-36.45-2.4-48.87s-7.35-15.49-7.35-15.49-20.06,14.95-19.84,33.85C300.41,356.47,313.71,377.37,319.05,393.79Z"/><path class="cls-20" d="M300.41,356.47s17.51,18,18.64,37.32C319.05,393.79,313.91,378.37,300.41,356.47Z"/><path class="cls-21" d="M261.1,439c6.81,21,9.35,48.64,9.35,48.64l0-.06c-3.62-15.5-8.61-32.62-14.93-44.91l-9.62-.8S232,469.56,225.63,488l-1.84-3.63s10.68-27.19,8.48-39.2-17-37.48-17-37.48l2.12-6.79s13.82,36.53,31.46,34.52,33.58-28.17,32.24-55.14c-.92-18.51-4.7-65.51-4.7-65.51A55,55,0,0,0,286.14,336c.33,8.77.71,17.12,1.14,23.17.67,9.66,1,19.6,1.46,28.75.4,8.84.82,17,1.6,23.47.21,1.69.47,3.91.74,6.53C275,415.37,261.1,439,261.1,439Z"/><path class="cls-20" d="M168.85,299.11A76.6,76.6,0,0,0,180.19,294s-6.68,2.92-12.56.07Z"/><path class="cls-22" d="M180.93,278.08s-5.52,9-10.59,10.68a29.4,29.4,0,0,1-7.61,0,2.7,2.7,0,0,1-1.4-.68,56,56,0,0,1,1.35-10.59c1.61-7.74,0-20,0-20a25.17,25.17,0,0,1,7.66,13.93,52.88,52.88,0,0,0,5.9-13.44,8.22,8.22,0,0,0,.29-1,46.51,46.51,0,0,0,1.25-6.3.22.22,0,0,1,0,.07C178.5,251.61,185.22,261.09,180.93,278.08Z"/><path class="cls-22" d="M167.63,288.77s3.44.73,8.55,2.42,13.13-7.13,12-18.84l-7.27,5.73Z"/><path class="cls-14" d="M247.15,192.35s1.47-33.07,42.21-30.85l4.29-3.8S251.32,150.88,247.15,192.35Z"/><path class="cls-14" d="M187.34,189.42l-5-7.09s17.93-5.22,22,22.82c0,0-3.89-22.91-16.41-18.86Z"/><polygon class="cls-23" points="215.31 472.21 215.31 483.03 217.43 484.5 219.18 477.42 215.31 472.21"/><polygon class="cls-24" points="190.1 528.42 190.1 531.02 217.43 529.72 217.94 527.72 190.1 528.42"/><rect class="cls-25" x="276.62" y="531.02" width="28.14" height="1.41"/><polygon class="cls-23" points="281.93 477.45 282.94 483.46 285.34 483.46 284.44 475.15 281.93 477.45"/><polygon class="cls-23" points="270.75 395.11 270.75 402.72 273.69 402.72 274.76 394.04 270.75 395.11"/><path class="cls-23" d="M309.73,335.09l2,4.13-1,2.14-3.4-1.47A11,11,0,0,1,309.73,335.09Z"/><polygon class="cls-23" points="194.28 313.4 198.35 315.39 198.35 318.07 194.28 315.39 194.28 313.4"/><path class="cls-26" d="M293.65,222.7s5.5,2.7,6.76-3.51Z"/><path class="cls-26" d="M228.69,230.17s.33-4.4,2.07-5.49S236.7,227,236.7,227A8.28,8.28,0,0,1,228.69,230.17Z"/><path class="cls-26" d="M257.71,383.46s.33-4.4,2.07-5.49,5.94,2.32,5.94,2.32A8.28,8.28,0,0,1,257.71,383.46Z"/><path class="cls-26" d="M255.73,315.4a8.28,8.28,0,0,1,2.63-2.79c1.73-1.08,5.33-.37,5.33-.37A8.24,8.24,0,0,1,255.73,315.4Z"/><path class="cls-26" d="M246.91,152.69s3.1-6,8.26-8,8.44.8,8.44.8S257.64,151.09,246.91,152.69Z"/><path class="cls-7" d="M192.6,150a55,55,0,0,0-2.54,8.26c-10.42-14.69-33.38-17.35-33.38-17.35-9.34-21.9,4.55-28,4.55-28A66.67,66.67,0,0,0,192.6,150Z"/><path class="cls-27" d="M336.69,74.33s11,15,3.34,27.41C340,101.74,333.59,92.37,336.69,74.33Z"/><path class="cls-20" d="M234.66,287.78S231.26,299.3,247,301.3s33.31-14.88,33.31-14.88-5.37-7-11.2-10.26l2.5-10.43a137,137,0,0,1-19.85,5.58l.22,6.05A117.08,117.08,0,0,1,234.66,287.78Z"/><path class="cls-28" d="M212.25,138.66c-.06-.76-6.27-76.16-40.78-89.13l.74-2c35.77,13.44,41.9,87.79,42.14,91Z"/><path class="cls-29" d="M254.2,128.67C254,125,249.78,37.78,289,22.19l.78,2c-37.78,15-33.49,103.51-33.44,104.4Z"/><path class="cls-27" d="M276.16,32.79s16.76,0,17.49-15.22C293.65,17.57,282.29,24.05,276.16,32.79Z"/><path class="cls-27" d="M164.87,48.54s13.14,8.77,19.39,8.13C184.26,56.67,178,42.13,164.87,48.54Z"/><path class="cls-2" d="M222.24,414.17l-1-.17c.09-.59,2.42-14.59,9.31-21.81l.76.73C224.62,399.89,222.26,414,222.24,414.17Z"/><path class="cls-2" d="M273.31,422.56c-1.66-14.41-9-28.13-9.06-28.26l.93-.51c.07.14,7.5,14,9.18,28.65Z"/><path class="cls-2" d="M273.64,502.63l-1-.36c0-.13,4.81-12.44,23.48-12.44h.22v1.06h-.22C278.23,490.89,273.68,502.52,273.64,502.63Z"/><path class="cls-2" d="M224.37,499.58c-11.39-15.51-22-13.75-22-13.73l-.2-1c.45-.09,11.28-1.95,23.09,14.15Z"/><polygon class="cls-2" points="217.4 526.21 209.35 523.41 209.7 522.41 217.75 525.21 217.4 526.21"/><polygon class="cls-2" points="277.71 527.63 277.54 526.59 285.85 525.19 286.02 526.23 277.71 527.63"/><path class="cls-2" d="M305.59,363.82l-1-.41c.34-.83,8.62-20.37,23.9-22.57l.15,1C314,344,305.68,363.62,305.59,363.82Z"/><path class="cls-2" d="M192.64,346.63l-.67-.82c.09-.08,9.57-8.17,7.54-31.8l1.05-.09C202.65,338.17,193.05,346.3,192.64,346.63Z"/><g class="cls-30"><path class="cls-31" d="M330,387s2.16-31-1.4-45.59l-.08-.55h0a24,24,0,0,0-.87-2.74c-4.94-12.42-7.35-15.49-7.35-15.49a59.34,59.34,0,0,0-6.13,5.53C308.7,322.67,303,318,298.75,314.08c-6.8-6.41-15-22.89-15-22.89l0,0a22.15,22.15,0,0,0-3.42-4.79h0s-5.37-7-11.2-10.26l2.5-10.43a159.89,159.89,0,0,0,23.52-10.87c11.66-6.63,21-14.22,24.23-21,7.32-15.58-10-58.45-11.71-74.31v0h0a18,18,0,0,1-.1-2.76c.59-12.84,7-39.26,35.85-47.09a36.16,36.16,0,0,0,8-22.83c0-14-6.47-25.83-11.94-25s-6.53,22.83-13.62,40.74-23.49,30-29.76,31.1h0s-16.25-6.2-39.94-5.1l.16,0c0-.78-3.35-69,21.37-95.87,4.15-.42,15.37-2.72,16-15.12A71.3,71.3,0,0,0,283,25.34c-32.11,21.22-29.11,97.11-28.8,103.37a121,121,0,0,0-39.87,9.45c-.45-5.53-5.81-62.95-31.83-84.54-2.7-3.86-8.52-9.53-17.62-5.08,0,0,11.16,7.44,17.8,8.1,24.7,22.83,29.52,81.35,29.58,82l1.09-.08A128.91,128.91,0,0,0,192.6,150a43.39,43.39,0,0,1-4.55-2.65c-.61-.4-1.28-.85-2-1.35-1.4-1-3-2.18-4.61-3.57-.82-.7-1.67-1.44-2.53-2.24l-1.29-1.24a67.46,67.46,0,0,1-7.8-9.13c-.42-.59-.84-1.19-1.24-1.81A63.75,63.75,0,0,1,163,117.64q-1-2.3-1.8-4.78a14.18,14.18,0,0,0-6.92,8.51,15.92,15.92,0,0,0-.54,2.14c-.07.38-.13.77-.18,1.18a23.4,23.4,0,0,0-.14,2.59c0,.45,0,.92.05,1.41a37.07,37.07,0,0,0,3.18,12.21s1.44.16,3.75.64l1.89.42c1.36.33,2.91.74,4.57,1.25a56.47,56.47,0,0,1,13.56,6.13,40.39,40.39,0,0,1,3.94,2.87,31.93,31.93,0,0,1,5.67,6,76.8,76.8,0,0,0-.89,9.73c0,.44,0,.91,0,1.35v0a33.32,33.32,0,0,0,.27,4.17l0,0-1,8.69a14.6,14.6,0,0,0-6,.14l5,7.09c-1.67,10.34-1.9,25.49,7.86,35.26h0c-.25,1.95-2,4.78-3.76,8-2.43,4.36-5,9.45-4,14.06C188.86,254,212.32,269.42,235,272a50.85,50.85,0,0,0,6.72.38,60.46,60.46,0,0,0,10.12-1l.22,6.05h0a123.17,123.17,0,0,1-12.66,8c-2.6,1.36-4.58,2.34-4.68,2.39h0s-6.62,3.21-9,6.4S215,313.62,204.82,316.73h0l-.06,0c-.34-.18-1.93-1-4.17-2.4,0-.13,0-.25,0-.38l-.52,0-1-.65c-9.58-6.92-18.67-19.14-18.81-19.32h0s5.41-4.88,7.34-10.48a22.57,22.57,0,0,0,.67-11.15L181,278.06c.19-.53,4-10.36,2.83-16.47a23.08,23.08,0,0,0-6-10.86.22.22,0,0,0,0-.07,46.51,46.51,0,0,1-1.25,6.3,8.22,8.22,0,0,1-.29,1,58.28,58.28,0,0,1-4.59,10.31s-2.28-10.27-9-10.8c0,0,.06.43.14,1.19.06.5.12,1.14.19,1.9.1,1.13.2,2.51.28,4s.12,3.16.11,4.84a42.06,42.06,0,0,1-.72,8.07c-.36,1.78-.64,3.38-.85,4.81a41.31,41.31,0,0,0-.5,5.78,8.58,8.58,0,0,0,.42,3.11c.68,1.52,5.88,2.85,5.88,2.85l0,.11c.34,1.56.71,3.08,1.09,4.57l.1.39h0c5.74,22.13,15.62,37.52,23.12,46.71h0l.36.44.08.1.23.28h0a71.06,71.06,0,0,0,9.44,9.64,44.64,44.64,0,0,0,4.66-12.89,38.46,38.46,0,0,0,10.57-6.74A137.33,137.33,0,0,0,229.24,325c.06.48.11,1,.17,1.44.31,2.57.68,5.2,1.05,7.73.49,3.37,1,6.57,1.31,9.22.26,2,.44,3.65.48,4.86,0,.19,0,.36,0,.52a3.38,3.38,0,0,1,0,.45h0l-.18.2.15.11c-.05.59-.14,1.27-.29,2.1-.34,1.95-1,4.56-1.83,7.82-.78,2.91-1.77,6.36-2.94,10.27l-.21.15.12.16c-.77,2.57-1.6,5.31-2.52,8.29-1,3.3-2.15,6.87-3.35,10.66l-1.05,3.32-1,3.11c-.57,1.82-1.16,3.66-1.75,5.54l-2.12,6.79c-5.74,18.67-11.26,38.55-12.8,50.49a5.88,5.88,0,0,0-2.83-.59,209.05,209.05,0,0,0,2.47,27.19h0l.11.57c2.91,19.65,7.28,37.5,7.29,37.53h0c-15.12-1.3-19.43,5.51-19.43,5.51V531l27.33-1.3.51-2-.37-2h0l.18-.49h0l7.08-25.93.43-.31-.25-.33,2.08-7.63c-.48-1-1-2-1.42-3h0c1.4-4,3.16-8.52,5.05-13.06.27-.65.54-1.3.82-2,1.37-3.24,2.8-6.49,4.19-9.6l.84-1.84q1.25-2.74,2.42-5.27c.26-.55.51-1.1.76-1.64,3.52-7.51,6.17-12.81,6.17-12.81l9.62.8c1.58,3.07,3.08,6.45,4.49,10s2.74,7.35,4,11.23c.31,1,.62,1.95.92,2.93.6,2,1.18,3.94,1.74,5.92.28,1,.55,2,.82,3,.54,2,1.05,4,1.55,5.95s1,3.94,1.42,5.88l0,.06L273,501.55a5.79,5.79,0,0,0-.33.72l.49.18,4.48,24.66h0l-1,3.91v1.41h28.14V531c-7.51-7.11-18.82-5.31-18.82-5.31h0s1-2.65,2.37-6.81c2.67-7.83,6.77-20.55,7.95-28h.08v-.54c1.6-11.11.8-26.33.8-26.33-.67.22-1.33.48-2,.75-.92-16.09-2.8-35.3-4.08-46.82-.11-1.07-.22-2.05-.32-3l-2-26.5c0-.18,0-.35,0-.52-.22-4.58-.41-9.35-.64-14.19-.11-2.41-.23-4.85-.37-7.28s-.28-4.87-.45-7.28c-.21-3-.42-6.62-.61-10.56,0-1-.09-2-.14-3-.13-3.07-.27-6.3-.39-9.59v0c4.26,7.76,9.69,14.38,14.29,20.48,13.49,21.9,18.63,37.31,18.63,37.31s-10.58,15.76-6.28,24.17l5.74-7.23a32.81,32.81,0,0,0,.54,5.76c1.2,5.61,3.61,13.22,3.61,13.22s10.54-8.41,6.8-20L343.75,422s.94-9.48-3.2-16.69S330.8,391.25,330,387Z"/></g></g></g></svg>