<svg id="Layer_1" data-name="Layer 1" xmlns="http://www.w3.org/2000/svg" xmlns:xlink="http://www.w3.org/1999/xlink" viewBox="0 0 547.65 547.65"><defs><linearGradient id="linear-gradient" x1="181.14" y1="253.62" x2="352.16" y2="253.62" gradientUnits="userSpaceOnUse"><stop offset="0" stop-color="#0078aa"/><stop offset="0.14" stop-color="#0081b0"/><stop offset="0.36" stop-color="#009ac0"/><stop offset="0.64" stop-color="#00c3da"/><stop offset="0.98" stop-color="#00fcfd"/><stop offset="0.99" stop-color="aqua"/><stop offset="1" stop-color="aqua"/></linearGradient><linearGradient id="linear-gradient-2" x1="252.04" y1="120.18" x2="280.96" y2="120.18" xlink:href="#linear-gradient"/><clipPath id="clip-path" transform="translate(7.32 23.32)"><path d="M261.3,339.73,181.14,164.08h171L272,339.73A5.88,5.88,0,0,1,261.3,339.73Z" fill="url(#linear-gradient)"/></clipPath><linearGradient id="linear-gradient-4" x1="330.55" y1="735.27" x2="331.33" y2="735.27" gradientTransform="matrix(0, 241.66, 241.66, 0, -177411.65, -79693.76)" xlink:href="#linear-gradient"/><clipPath id="clip-path-2" transform="translate(7.32 23.32)"><path d="M217.4,194.12a212.91,212.91,0,0,1,48.74,53.25C297.37,197,395.87,134.64,395.87,134.64,266.46,144.7,217.4,194.12,217.4,194.12" fill="none"/></clipPath><linearGradient id="linear-gradient-5" x1="329.31" y1="737.51" x2="330.09" y2="737.51" gradientTransform="matrix(230.19, 0, 0, -230.19, -75564.77, 169980.57)" xlink:href="#linear-gradient"/><clipPath id="clip-path-3" transform="translate(7.32 23.32)"><path d="M266.9,247.37a213.15,213.15,0,0,1,48.74-53.25s-49.05-49.42-178.46-59.48c0,0,98.5,62.32,129.72,112.73" fill="none"/></clipPath><linearGradient id="linear-gradient-6" x1="329.35" y1="737.5" x2="330.12" y2="737.5" gradientTransform="matrix(230.19, 0, 0, -230.19, -75668.25, 169980.57)" xlink:href="#linear-gradient"/><clipPath id="clip-path-4" transform="translate(7.32 23.32)"><path d="M137.31,134.7l73.15,11.19L104.79,37.06a2.25,2.25,0,0,0-3.71,2.37Z" fill="none"/></clipPath><linearGradient id="linear-gradient-7" x1="328.48" y1="737.59" x2="329.25" y2="737.59" gradientTransform="matrix(146.08, 0, 0, -146.08, -47879.32, 107857.92)" xlink:href="#linear-gradient"/><clipPath id="clip-path-5" transform="translate(7.32 23.32)"><path d="M322.54,145.89l73.15-11.19,36-94.65a2.38,2.38,0,0,0-3.94-2.51Z" fill="none"/></clipPath><linearGradient id="linear-gradient-8" x1="328.03" y1="737.59" x2="328.8" y2="737.59" gradientTransform="matrix(146.08, 0, 0, -146.08, -47588.67, 107857.92)" xlink:href="#linear-gradient"/><clipPath id="clip-path-6" transform="translate(7.32 23.32)"><path d="M252,120.18a14.46,14.46,0,1,0,14.46-14.46A14.46,14.46,0,0,0,252,120.18" fill="url(#linear-gradient-2)"/></clipPath><linearGradient id="linear-gradient-10" x1="237.58" y1="120.18" x2="295.42" y2="120.18" gradientTransform="translate(163.04 -153.24) rotate(45)" xlink:href="#linear-gradient"/></defs><title>logo</title><path d="M261.3,339.73,181.14,164.08h171L272,339.73A5.88,5.88,0,0,1,261.3,339.73Z" transform="translate(7.32 23.32)" fill="url(#linear-gradient)"/><g clip-path="url(#clip-path)"><rect x="188.46" y="187.41" width="171.02" height="187.36" fill="url(#linear-gradient-4)"/></g><g clip-path="url(#clip-path-2)"><rect x="240.23" y="156.41" width="178.46" height="112.73" fill="url(#linear-gradient-5)"/></g><g clip-path="url(#clip-path-3)"><rect x="144.5" y="157.96" width="178.46" height="112.73" fill="url(#linear-gradient-6)"/></g><g clip-path="url(#clip-path-4)"><rect x="104.53" y="52.57" width="113.25" height="116.64" fill="url(#linear-gradient-7)"/></g><g clip-path="url(#clip-path-5)"><rect x="329.86" y="52.57" width="113.25" height="116.64" fill="url(#linear-gradient-8)"/></g><path d="M252,120.18a14.46,14.46,0,1,0,14.46-14.46A14.46,14.46,0,0,0,252,120.18" transform="translate(7.32 23.32)" fill="url(#linear-gradient-2)"/><g clip-path="url(#clip-path-6)"><rect x="246.05" y="99.73" width="40.9" height="40.9" transform="translate(0.4 246.97) rotate(-45)" fill="url(#linear-gradient-10)"/></g><text transform="translate(101.47 480.57)" font-size="25.49" fill="#fff" font-family="Montserrat-SemiBold, Montserrat" font-weight="600" letter-spacing="0.33em">WEB DEVELOPER</text><rect width="547.65" height="547.65" fill="none"/><path d="M110.71,425.68a1.25,1.25,0,0,1-1.22,1.22H94.89a1.25,1.25,0,0,1-1.22-1.22v-55.4a1.25,1.25,0,0,1,1.22-1.22h14.6a1.25,1.25,0,0,1,1.22,1.22V387.8l11.68-18.17a2,2,0,0,1,1-.57H140a1.23,1.23,0,0,1,1.06,1.95l-18.5,26.77L141.05,425A1.18,1.18,0,0,1,140,426.9H123.44a2,2,0,0,1-1-.57l-11.76-18Z" transform="translate(7.32 23.32)" fill="#fff"/><path d="M185.7,427.66c-13.61,0-23.9-8.69-23.9-22.8,0-13.8,10.6-22.67,24-22.67,13.06,0,23.78,9.06,23.78,22.49S199,427.66,185.7,427.66Z" transform="translate(7.32 23.32)" fill="#fff"/><path d="M249.54,427.66c-13.61,0-23.9-8.69-23.9-22.8,0-13.8,10.59-22.67,24-22.67,13.06,0,23.78,9.06,23.78,22.49S262.79,427.66,249.54,427.66Z" transform="translate(7.32 23.32)" fill="#fff"/><path d="M364.12,369.06a1.15,1.15,0,0,1,1.14,1.62L348.14,426a1.19,1.19,0,0,1-1.13.89H335.49a1.28,1.28,0,0,1-1.22-.89l-6.57-23.2L321.05,426a1.29,1.29,0,0,1-1.22.89H308.47a1.28,1.28,0,0,1-1.21-.89l-17.12-55.33a1.18,1.18,0,0,1,1.14-1.62h15.08a1.14,1.14,0,0,1,1.14,1l6.57,24.26L321.45,370a1.07,1.07,0,0,1,1.14-.89h10.22A1.29,1.29,0,0,1,334,370l7.3,24.34L347.9,370c.24-.56.57-1,1.13-1Z" transform="translate(7.32 23.32)" fill="#fff"/><path d="M429.27,420.9c-6.25,5.11-13.06,6-20.85,6H387.74a1.25,1.25,0,0,1-1.22-1.22v-55.4a1.25,1.25,0,0,1,1.22-1.22H408.1c18.82,0,31.23,9.73,31.23,29.2C439.33,407.92,436.08,415.38,429.27,420.9Z" transform="translate(7.32 23.32)" fill="#fff"/><rect x="169.93" y="392.66" width="110.84" height="5.68" rx="1.47" fill="#fff"/></svg>