<svg xmlns="http://www.w3.org/2000/svg" xmlns:xlink="http://www.w3.org/1999/xlink" viewBox="0 0 500 550"><defs><style>.cls-1{fill:none;}.cls-2{isolation:isolate;}.cls-3{fill:aqua;}.cls-11,.cls-12,.cls-13,.cls-14,.cls-16,.cls-17,.cls-18,.cls-19,.cls-20,.cls-21,.cls-3,.cls-37,.cls-44,.cls-45,.cls-5,.cls-55,.cls-58,.cls-6,.cls-61,.cls-62,.cls-66,.cls-7,.cls-8,.cls-9{fill-rule:evenodd;}.cls-4,.cls-5{fill:#cab3da;}.cls-6{fill:url(#Áåçûìÿííûé_ãðàäèåíò_25);}.cls-7{fill:#684d73;}.cls-15,.cls-17,.cls-8{fill:#53345f;}.cls-10,.cls-9{fill:#ff6b22;}.cls-11,.cls-16,.cls-17,.cls-18,.cls-19,.cls-20,.cls-21,.cls-30,.cls-48,.cls-51,.cls-52,.cls-53,.cls-55,.cls-61{mix-blend-mode:multiply;}.cls-11{fill:url(#Áåçûìÿííûé_ãðàäèåíò_163);}.cls-12{fill:url(#Áåçûìÿííûé_ãðàäèåíò_436);}.cls-13{fill:url(#Áåçûìÿííûé_ãðàäèåíò_25-2);}.cls-14{fill:url(#Áåçûìÿííûé_ãðàäèåíò_436-2);}.cls-16{fill:url(#Áåçûìÿííûé_ãðàäèåíò_36);}.cls-17{opacity:0.5;}.cls-18{fill:url(#Áåçûìÿííûé_ãðàäèåíò_36-2);}.cls-19{fill:url(#Áåçûìÿííûé_ãðàäèåíò_36-3);}.cls-20{fill:url(#Áåçûìÿííûé_ãðàäèåíò_36-4);}.cls-21{fill:url(#Áåçûìÿííûé_ãðàäèåíò_163-2);}.cls-22{fill:#fff;}.cls-23{fill:url(#Áåçûìÿííûé_ãðàäèåíò_93);}.cls-24,.cls-25,.cls-63{mix-blend-mode:lighten;}.cls-24{fill:url(#radial-gradient);}.cls-26{fill:url(#linear-gradient);}.cls-27{fill:#aeffff;}.cls-28,.cls-44{fill:#cc5268;}.cls-29{fill:url(#Áåçûìÿííûé_ãðàäèåíò_11);}.cls-30,.cls-48,.cls-55{opacity:0.6;}.cls-30{fill:url(#Áåçûìÿííûé_ãðàäèåíò_98);}.cls-31{fill:url(#Áåçûìÿííûé_ãðàäèåíò_124);}.cls-32{fill:url(#Áåçûìÿííûé_ãðàäèåíò_124-2);}.cls-33{fill:url(#Áåçûìÿííûé_ãðàäèåíò_124-3);}.cls-34{fill:#6d3a51;}.cls-35{fill:#f58e6f;}.cls-36{fill:url(#Áåçûìÿííûé_ãðàäèåíò_13);}.cls-37{fill:#dd6668;}.cls-38{fill:url(#Áåçûìÿííûé_ãðàäèåíò_13-2);}.cls-39{clip-path:url(#clip-path);}.cls-40{fill:url(#Áåçûìÿííûé_ãðàäèåíò_203);}.cls-41{fill:#402f40;}.cls-42{clip-path:url(#clip-path-2);}.cls-43{fill:url(#Áåçûìÿííûé_ãðàäèåíò_203-2);}.cls-45{fill:#a13751;}.cls-46{fill:#8b2e45;}.cls-47{fill:#ffebed;}.cls-48{fill:url(#Áåçûìÿííûé_ãðàäèåíò_221);}.cls-49{fill:url(#Áåçûìÿííûé_ãðàäèåíò_213);}.cls-50{fill:url(#Áåçûìÿííûé_ãðàäèåíò_12);}.cls-51,.cls-52,.cls-53{opacity:0.91;}.cls-51{fill:url(#Áåçûìÿííûé_ãðàäèåíò_98-2);}.cls-52{fill:url(#Áåçûìÿííûé_ãðàäèåíò_221-2);}.cls-53{fill:url(#Áåçûìÿííûé_ãðàäèåíò_221-3);}.cls-54{fill:url(#Áåçûìÿííûé_ãðàäèåíò_10);}.cls-55{fill:url(#Áåçûìÿííûé_ãðàäèåíò_69);}.cls-56{fill:#ffbba6;}.cls-57{fill:url(#Áåçûìÿííûé_ãðàäèåíò_213-2);}.cls-58{fill:url(#Áåçûìÿííûé_ãðàäèåíò_519);}.cls-59{opacity:0.3;fill:url(#radial-gradient-2);}.cls-60,.cls-64{mix-blend-mode:screen;}.cls-60{fill:url(#radial-gradient-3);}.cls-61{fill:url(#Áåçûìÿííûé_ãðàäèåíò_36-5);}.cls-62{fill:url(#Áåçûìÿííûé_ãðàäèåíò_20);}.cls-63{fill:url(#linear-gradient-2);}.cls-64{fill:url(#Áåçûìÿííûé_ãðàäèåíò_4);}.cls-65{mix-blend-mode:color;}.cls-66{mix-blend-mode:color-burn;fill:url(#radial-gradient-4);}</style><radialGradient id="Áåçûìÿííûé_ãðàäèåíò_25" cx="3783.68" cy="-168.13" r="52.1" gradientTransform="matrix(0.98, 0.21, -0.21, 0.98, -3358.75, -401.09)" gradientUnits="userSpaceOnUse"><stop offset="0" stop-color="#f4dbee"/><stop offset="1" stop-color="#d1bde5"/></radialGradient><linearGradient id="Áåçûìÿííûé_ãðàäèåíò_163" x1="3723.79" y1="-153.92" x2="3785.59" y2="-153.92" gradientTransform="matrix(0.98, 0.21, -0.21, 0.98, -3358.75, -401.09)" gradientUnits="userSpaceOnUse"><stop offset="0" stop-color="#9579a7"/><stop offset="1" stop-color="#fff"/></linearGradient><radialGradient id="Áåçûìÿííûé_ãðàäèåíò_436" cx="3806.94" cy="12.99" r="55.54" gradientTransform="matrix(0.98, 0.21, -0.21, 0.98, -3358.75, -401.09)" gradientUnits="userSpaceOnUse"><stop offset="0" stop-color="#f4f1ff"/><stop offset="1" stop-color="#d1bde5"/></radialGradient><radialGradient id="Áåçûìÿííûé_ãðàäèåíò_25-2" cx="3629.53" cy="-118.07" r="56.87" xlink:href="#Áåçûìÿííûé_ãðàäèåíò_25"/><radialGradient id="Áåçûìÿííûé_ãðàäèåíò_436-2" cx="3668.39" cy="23.03" r="66.96" xlink:href="#Áåçûìÿííûé_ãðàäèåíò_436"/><linearGradient id="Áåçûìÿííûé_ãðàäèåíò_36" x1="3584.01" y1="-36.3" x2="3780.52" y2="-36.3" gradientTransform="matrix(0.98, 0.21, -0.21, 0.98, -3358.75, -401.09)" gradientUnits="userSpaceOnUse"><stop offset="0" stop-color="#fff"/><stop offset="1" stop-color="#9579a7"/></linearGradient><linearGradient id="Áåçûìÿííûé_ãðàäèåíò_36-2" x1="3758.89" y1="82.65" x2="3805.12" y2="82.65" xlink:href="#Áåçûìÿííûé_ãðàäèåíò_36"/><linearGradient id="Áåçûìÿííûé_ãðàäèåíò_36-3" x1="3624.76" y1="95.2" x2="3668.29" y2="95.2" xlink:href="#Áåçûìÿííûé_ãðàäèåíò_36"/><linearGradient id="Áåçûìÿííûé_ãðàäèåíò_36-4" x1="3552.03" y1="-96.05" x2="3582.04" y2="-96.05" xlink:href="#Áåçûìÿííûé_ãðàäèåíò_36"/><linearGradient id="Áåçûìÿííûé_ãðàäèåíò_163-2" x1="3830.94" y1="-197.12" x2="3849.18" y2="-197.12" xlink:href="#Áåçûìÿííûé_ãðàäèåíò_163"/><linearGradient id="Áåçûìÿííûé_ãðàäèåíò_93" x1="3706.27" y1="-354.91" x2="3706.27" y2="-253.31" gradientTransform="matrix(0.98, 0.21, -0.21, 0.98, -3358.75, -401.09)" gradientUnits="userSpaceOnUse"><stop offset="0" stop-color="#007c7e"/><stop offset="1" stop-color="#0f183b"/></linearGradient><radialGradient id="radial-gradient" cx="3685.73" cy="-273.69" r="146.28" gradientTransform="matrix(0.98, 0.21, -0.21, 0.98, -3358.75, -401.09)" gradientUnits="userSpaceOnUse"><stop offset="0" stop-color="#00c6ff"/><stop offset="0.15" stop-color="#00aee0"/><stop offset="0.47" stop-color="#007090"/><stop offset="0.93" stop-color="#000e12"/><stop offset="1"/></radialGradient><linearGradient id="linear-gradient" x1="3779.84" y1="-313.56" x2="3636.02" y2="-261.21" gradientTransform="matrix(0.98, 0.21, -0.21, 0.98, -3358.75, -401.09)" xlink:href="#radial-gradient"/><linearGradient id="Áåçûìÿííûé_ãðàäèåíò_11" x1="-1983.12" y1="-486.48" x2="-1983.12" y2="-621.53" gradientTransform="matrix(-0.95, -0.31, -0.31, 0.95, -1746.56, 43.83)" gradientUnits="userSpaceOnUse"><stop offset="0.02" stop-color="#ffae78"/><stop offset="1" stop-color="#ff957c"/></linearGradient><linearGradient id="Áåçûìÿííûé_ãðàäèåíò_98" x1="-1980.89" y1="-486.48" x2="-1980.89" y2="-621.53" gradientTransform="matrix(-0.95, -0.31, -0.31, 0.95, -1746.56, 43.83)" gradientUnits="userSpaceOnUse"><stop offset="0.02" stop-color="#f0c2d6"/><stop offset="0.99" stop-color="#bd89c4"/></linearGradient><linearGradient id="Áåçûìÿííûé_ãðàäèåíò_124" x1="-1969.74" y1="-513.44" x2="-1969.74" y2="-653.45" gradientTransform="matrix(-0.95, -0.31, -0.31, 0.95, -1746.56, 43.83)" gradientUnits="userSpaceOnUse"><stop offset="0.01" stop-color="#813645"/><stop offset="1" stop-color="#bd5042"/></linearGradient><linearGradient id="Áåçûìÿííûé_ãðàäèåíò_124-2" x1="-1964.37" y1="-559.9" x2="-1964.37" y2="-593.97" xlink:href="#Áåçûìÿííûé_ãðàäèåíò_124"/><linearGradient id="Áåçûìÿííûé_ãðàäèåíò_124-3" x1="-2019.5" y1="-576.02" x2="-2019.5" y2="-604.28" xlink:href="#Áåçûìÿííûé_ãðàäèåíò_124"/><linearGradient id="Áåçûìÿííûé_ãðàäèåíò_13" x1="-1980.05" y1="-527.69" x2="-1980.05" y2="-563.93" gradientTransform="matrix(-0.95, -0.31, -0.31, 0.95, -1746.56, 43.83)" gradientUnits="userSpaceOnUse"><stop offset="0" stop-color="#fff"/><stop offset="1" stop-color="#d0c7f8"/></linearGradient><linearGradient id="Áåçûìÿííûé_ãðàäèåíò_13-2" x1="-2028.92" y1="-545.34" x2="-2028.92" y2="-579.3" xlink:href="#Áåçûìÿííûé_ãðàäèåíò_13"/><clipPath id="clip-path"><path class="cls-1" d="M320,147.28c4.48-8.09,3.71-25.51-9.08-30.92S284.5,127,285.74,138.75C286.93,150.05,314.19,157.76,320,147.28Z"/></clipPath><linearGradient id="Áåçûìÿííûé_ãðàäèåíò_203" x1="-1524.65" y1="-2.95" x2="-1524.65" y2="-28.73" gradientTransform="matrix(-1.15, -0.01, -0.01, 1.38, -1437.66, 150.57)" gradientUnits="userSpaceOnUse"><stop offset="0.01" stop-color="#6f8b8b"/><stop offset="0.98" stop-color="#5c435b"/></linearGradient><clipPath id="clip-path-2"><path class="cls-1" d="M364.09,143.94c-.78,4.06-2.59,7.31-5.85,7a15.18,15.18,0,0,1-12.55-11.78c-1.15-5.54,5.21-23.71,12.45-23.6C364.3,115.64,365.61,136,364.09,143.94Z"/></clipPath><linearGradient id="Áåçûìÿííûé_ãðàäèåíò_203-2" x1="-3517.71" y1="226.74" x2="-3517.71" y2="199.8" gradientTransform="matrix(-0.62, 0.02, 0.03, 1.14, -1833.14, -41.8)" xlink:href="#Áåçûìÿííûé_ãðàäèåíò_203"/><linearGradient id="Áåçûìÿííûé_ãðàäèåíò_221" x1="-1998.54" y1="-516.49" x2="-1999.49" y2="-524.44" gradientTransform="matrix(-0.95, -0.31, -0.31, 0.95, -1746.56, 43.83)" gradientUnits="userSpaceOnUse"><stop offset="0.01" stop-color="#bd89c4"/><stop offset="0.98" stop-color="#f0c2d6"/></linearGradient><linearGradient id="Áåçûìÿííûé_ãðàäèåíò_213" x1="-1936.41" y1="-597.34" x2="-1936.41" y2="-636.5" gradientTransform="matrix(-0.95, -0.31, -0.31, 0.95, -1746.56, 43.83)" gradientUnits="userSpaceOnUse"><stop offset="0.01" stop-color="#aa454f"/><stop offset="1" stop-color="#d98638"/></linearGradient><linearGradient id="Áåçûìÿííûé_ãðàäèåíò_12" x1="-1988.84" y1="-625.74" x2="-1988.84" y2="-653.45" gradientTransform="matrix(-0.95, -0.31, -0.31, 0.95, -1746.56, 43.83)" gradientUnits="userSpaceOnUse"><stop offset="0.01" stop-color="#b14d4e"/><stop offset="1" stop-color="#d98638"/></linearGradient><linearGradient id="Áåçûìÿííûé_ãðàäèåíò_98-2" x1="-2020.63" y1="-613.76" x2="-2005.98" y2="-613.76" xlink:href="#Áåçûìÿííûé_ãðàäèåíò_98"/><linearGradient id="Áåçûìÿííûé_ãðàäèåíò_221-2" x1="-2005.69" y1="-607.8" x2="-2005.69" y2="-644.28" xlink:href="#Áåçûìÿííûé_ãðàäèåíò_221"/><linearGradient id="Áåçûìÿííûé_ãðàäèåíò_221-3" x1="-1928.14" y1="-513.44" x2="-1928.14" y2="-590.17" xlink:href="#Áåçûìÿííûé_ãðàäèåíò_221"/><linearGradient id="Áåçûìÿííûé_ãðàäèåíò_10" x1="-2104.47" y1="206.6" x2="-2104.47" y2="167.8" gradientTransform="matrix(-1, -0.06, -0.06, 1, -1841.68, -144.32)" gradientUnits="userSpaceOnUse"><stop offset="0.02" stop-color="#ff8359"/><stop offset="1" stop-color="#ff8b7c"/></linearGradient><linearGradient id="Áåçûìÿííûé_ãðàäèåíò_69" x1="-2118.02" y1="188.75" x2="-2092.57" y2="188.75" gradientTransform="matrix(-1, -0.06, -0.06, 1, -1841.68, -144.32)" gradientUnits="userSpaceOnUse"><stop offset="0.01" stop-color="#b060f4"/><stop offset="1" stop-color="#ffeadb"/></linearGradient><linearGradient id="Áåçûìÿííûé_ãðàäèåíò_213-2" x1="-1969.11" y1="-607.11" x2="-1969.11" y2="-644.69" xlink:href="#Áåçûìÿííûé_ãðàäèåíò_213"/><linearGradient id="Áåçûìÿííûé_ãðàäèåíò_519" x1="3686.43" y1="-176.23" x2="3686.43" y2="-374.94" gradientTransform="matrix(0.98, 0.21, -0.21, 0.98, -3358.75, -401.09)" gradientUnits="userSpaceOnUse"><stop offset="0" stop-color="#d1bde5"/><stop offset="1" stop-color="#fff"/></linearGradient><radialGradient id="radial-gradient-2" cx="3729.56" cy="-303.04" r="93.03" gradientTransform="matrix(0.98, 0.21, -0.21, 0.98, -3358.75, -401.09)" gradientUnits="userSpaceOnUse"><stop offset="0" stop-color="#0f183b"/><stop offset="1" stop-color="#00e7ff"/></radialGradient><radialGradient id="radial-gradient-3" cx="3727.99" cy="-316.31" r="105.97" gradientTransform="matrix(0.98, 0.21, -0.21, 0.98, -3358.75, -401.09)" gradientUnits="userSpaceOnUse"><stop offset="0"/><stop offset="0.27" stop-color="#000002"/><stop offset="0.41" stop-color="#00020a"/><stop offset="0.52" stop-color="#000517"/><stop offset="0.61" stop-color="#00092a"/><stop offset="0.69" stop-color="#000e43"/><stop offset="0.77" stop-color="#001561"/><stop offset="0.84" stop-color="#001c85"/><stop offset="0.9" stop-color="#0025af"/><stop offset="0.96" stop-color="#002fdd"/><stop offset="1" stop-color="#0036ff"/></radialGradient><linearGradient id="Áåçûìÿííûé_ãðàäèåíò_36-5" x1="3579.64" y1="-234.93" x2="3782.23" y2="-234.93" xlink:href="#Áåçûìÿííûé_ãðàäèåíò_36"/><linearGradient id="Áåçûìÿííûé_ãðàäèåíò_20" x1="3627.85" y1="-186.57" x2="3627.85" y2="-292" gradientTransform="matrix(0.98, 0.21, -0.21, 0.98, -3358.75, -401.09)" gradientUnits="userSpaceOnUse"><stop offset="0" stop-color="#d1bde5"/><stop offset="1" stop-color="#f4dbee"/></linearGradient><linearGradient id="linear-gradient-2" x1="3697.18" y1="-311.17" x2="3754.83" y2="-211.32" gradientTransform="matrix(0.98, 0.21, -0.21, 0.98, -3358.75, -401.09)" gradientUnits="userSpaceOnUse"><stop offset="0" stop-color="#36388a"/><stop offset="1"/></linearGradient><radialGradient id="Áåçûìÿííûé_ãðàäèåíò_4" cx="2723.99" cy="1153.88" r="16.88" gradientTransform="matrix(1.45, -0.22, 0.1, 0.65, -3747.5, -54.31)" gradientUnits="userSpaceOnUse"><stop offset="0" stop-color="#003cee"/><stop offset="0.06" stop-color="#0036d6"/><stop offset="0.2" stop-color="#00289e"/><stop offset="0.34" stop-color="#001c6d"/><stop offset="0.48" stop-color="#001246"/><stop offset="0.62" stop-color="#000a27"/><stop offset="0.75" stop-color="#000412"/><stop offset="0.88" stop-color="#000104"/><stop offset="1"/></radialGradient><radialGradient id="radial-gradient-4" cx="135.9" cy="268.17" r="324.07" gradientTransform="matrix(-1, 0, 0, 1, 612.8, 0)" gradientUnits="userSpaceOnUse"><stop offset="0" stop-color="#00d5ff"/><stop offset="0.18" stop-color="#29dcff"/><stop offset="0.59" stop-color="#90edff"/><stop offset="1" stop-color="#fff"/></radialGradient></defs><title>BG</title><g class="cls-2"><g id="space_background" data-name="space background"><path class="cls-3" d="M227,312.34c.44-.89.92-1.85,1.43-2.85,2.26-4.6,5-10.36,8.05-17.48,6.8-15.56,18.29-41,26.23-58.43v0c2.39-5.25,4.45-9.78,6-13.12.57-1.26,1.08-2.37,1.49-3.25.81-1.8,1.27-2.79,1.27-2.79s34.68,10.95,51.73,2.81c0,0,.37.54,1,1.62.09.14.15.27.24.4,3.23,5.67,11.56,23.17,10.84,51.9-.09,3.55-.31,7.26-.7,11.16-.14,1.38-.29,2.77-.47,4.21,0,0,9.72,30.79,9,65.49v.07h0l1,18.41c.19,1,.4,2,.63,3.16,3.74,19.3,16.64,57.46,14.49,73.59-1.47,11-11.8,24.25-21.58,34.57,5.4,2.13,7.38,4.72,7.41,4.76h0a52.17,52.17,0,0,1-23.35,14.76s14.35,4.95,14.36,21.18l-39.05-22.83,2.17-5L297.6,482h0c.61-.15,1.19-.27,1.79-.4-2.06-17.46-6.6-48.15-14.69-68.3l-.89-2.14c-.16-.36-.31-.72-.47-1.07l-16.24.17a.79.79,0,0,1,0-.14l0-.26a1.32,1.32,0,0,0,0-.24,2.19,2.19,0,0,0,0-.31c-1.11-6.9-9.47-50-47.42-83.83C219.56,325.52,222.09,322,227,312.34Z"/><path class="cls-3" d="M460.91,213c-3.27,10.18-10.26,17.49-16.32,22.2a54.66,54.66,0,0,1-10.78,6.67s-7.18-7.09-7.61-17.62c0,0-.91-5.17,0-7.92,2-6.06,6.74-14.47,11.07-18.39l2.42,3.52s3.78-5.67,19.13-6.93C458.82,194.53,466.54,195.45,460.91,213Z"/><path class="cls-3" d="M298.12,201.77c-2.22-8.87-6.72-15.86-12.5-22.73-6.55-7.79-15.75-13.4-24.88-17.72-5.57-2.63-11.39-4.94-16.69-8.12l-.5-.52a84.05,84.05,0,0,1-5.8-10.25c-.78-2.16-1.47-4.36-2.05-6.58a49.9,49.9,0,0,0,6.72-8.41,44,44,0,0,0,5.76-20.77c0-.84,0-1.68-.08-2.52a46.5,46.5,0,0,0,3.08-7.75,147.69,147.69,0,0,1,12.61,39c.9,5,1.67,10.39,2.23,16.37l9.08.33s11.19,39.53,58.25,44.29c38.27,3.85,58.24-16.18,63.83-23.58.17-.33.27-.67.4-1,5.35-13.64,9.69-42.45,5.59-70.82-2.91-20.1-10-40-24.11-54.15A21,21,0,0,0,377,45l-1.14-.86a48.63,48.63,0,0,0-10-5.27,109,109,0,0,0-20.33-5.68c-15.25-1.79-36.31-1.18-57.36,9.11C267.42,52.48,257.05,68,252.42,79a37.46,37.46,0,0,0-2.23-9C246.65,60.9,243,55.58,237,48c-.17-.22-.34-.42-.52-.64a86,86,0,0,1,26.48-15.2C287,23.54,320.57,23.08,346.64,28a117.16,117.16,0,0,1,21.69,6.09A50.55,50.55,0,0,1,379,39.68l1.19.9a19.58,19.58,0,0,1,2.23,2c36.2,36.28,29.45,108.39,19.77,133.22-.17.36-.28.7-.45,1.06-2.17,4.67-6.52,10.1-12.51,15.43a9.62,9.62,0,0,1-1,.89,113.9,113.9,0,0,1-45.46,23.53,181.76,181.76,0,0,1-44.25,5.21A44.2,44.2,0,0,0,298.12,201.77Z"/><path class="cls-3" d="M431.55,246.88c-4.18,19-41.31,46.91-64,47a25.41,25.41,0,0,1-3-.16c-13.87-1.65-25.53-14.4-31.92-23a82.25,82.25,0,0,1-5.32-8l-6.54-45.62s.59,0,1.63.15a74.8,74.8,0,0,1,17.95,4.16c9.64,3.7,41.33,5.51,56.85-.54s20.57-12.15,24.5-12.19,7.8,6.21,7.8,6.21S436,226.86,431.55,246.88Z"/><path class="cls-4" d="M80.75,427.11a69.63,69.63,0,0,1-14.89-5.2C37.45,408.42,32,372.79,43.27,347.51,54.78,321.66,86.8,299.22,139.15,321c91.78,38.25,115.7,7.14,115.93,6.82l5.46,4c-1.07,1.48-27.34,35.71-124-4.55-47.82-19.92-76.36-1.18-87.13,23-10,22.38-5.41,53.81,19.33,65.55,30.53,14.49,52.31-.57,75.36-16.51,9.13-6.32,18.57-12.85,28.59-17.42,35.66-16.29,65.1-.76,66.34-.09l-3.21,5.94c-.28-.15-27.83-14.55-60.32.28C166,392.34,156.85,398.7,148,404.85,127.93,418.7,107.32,433,80.75,427.11Z"/><path class="cls-5" d="M177.87,494.8s-16.09,25.55-35.19,20.77Z"/><path class="cls-6" d="M431.14,248.75c-4.05,18.36-40.94,45.21-63.63,45.12a27.54,27.54,0,0,1-3-.18c-13.86-1.69-25.59-14.13-32-22.55a81.13,81.13,0,0,1-5.36-7.77l-6.84-44.28s.59,0,1.63.15a77,77,0,0,1,17.95,4.16c9.65,3.64,41.31,5.61,56.77-.15S417.06,211.6,421,211.59s7.83,6.08,7.83,6.08S435.4,229.37,431.14,248.75Z"/><path class="cls-7" d="M428.81,217.67s-7.08-1.56-9.17,3-2.14,30.52,11.5,28.07-2.33-31.07-2.33-31.07Z"/><path class="cls-8" d="M425.53,219.68s-.25,13.92,9.15,24.38C434.68,244.06,439,226.35,425.53,219.68Z"/><path class="cls-9" d="M457.38,214.14c-3,9.63-9.41,16.59-14.91,21.09a50.1,50.1,0,0,1-9.77,6.39A26.83,26.83,0,0,1,426,225.09s.48-1.76,1.33-4.36c1.88-5.74,5.52-15.56,9.45-19.3l1.18,6.25s3.87-9.61,17.71-10.94C455.69,196.74,462.63,197.53,457.38,214.14Z"/><path class="cls-10" d="M379.21,226.51s-6.36,12.41-4,36.2S394,285.85,394,285.85s-9,5.09-15.79,6.44c0,0-39.72-4.19-14.09-65.49Z"/><path class="cls-11" d="M332.45,271.14c-.09,3.55-.31,7.26-.68,11.16L314.84,260l2.77-40.83,4-.33c.09.13.15.26.24.4a77,77,0,0,1,17.95,4.16s-25.74,33.4,24.61,70.26c0,0,0,0,0,0C350.62,292,338.89,279.56,332.45,271.14Z"/><path class="cls-8" d="M342,486.56s-9.76-13.35-46.33-4.52C295.69,482,312.74,498.15,342,486.56Z"/><path class="cls-8" d="M163.81,457.23s23.86-3.34,39.85,21.86c0,0-9.76,5.71-23.76-.1S163.81,457.23,163.81,457.23Z"/><path class="cls-12" d="M316.92,499l-18.13-4s-.35-4.5-1.15-11.61c-2-18-6.84-52.65-15.85-73.26v0l57.75-47.31s.87,4.2,2.15,10.84c3.65,19.3,16.23,57.46,14.13,73.59C353,468.85,316.92,499,316.92,499Z"/><path class="cls-5" d="M339.55,362.79s-17.29,31.55-54.8,47.3l-3,0L266,410.3s0-.05,0-.14a1.58,1.58,0,0,0,0-.26,1.32,1.32,0,0,0,0-.24,2.19,2.19,0,0,0-.05-.31c-1.08-6.9-9.24-50-46.25-83.83,0,0,2.47-3.48,7.3-13.18.43-.89.89-1.85,1.39-2.85,2.21-4.6,4.83-10.36,7.85-17.48,6.63-15.56,17.84-41,25.58-58.43v0c2.33-5.25,4.34-9.78,5.83-13.12.55-1.26,1.05-2.37,1.45-3.25.79-1.8,1.24-2.79,1.24-2.79s33.83,10.95,50.45,2.81c0,0,.37.54,1,1.62.09.14.15.27.23.4,3.16,5.67,11.28,23.17,10.58,51.9-.09,3.55-.31,7.26-.68,11.16-.14,1.38-.29,2.77-.47,4.21,0,0,9.49,30.79,8.81,65.49C340,355.57,339.86,359.17,339.55,362.79Z"/><path class="cls-13" d="M266.14,261.17v0c-.46,1.13-1,2.26-1.47,3.44-8.08,18.37-21.92,37.19-37.8,47.7-9.73,6.45-20.21,9.76-30.6,8-23.19-4-35.18-21.08-38.28-26.16-.1-.18-.2-.35-.29-.48a2.26,2.26,0,0,0-.23-.42l-.3-.52s-7.86-3.92-6.18-12.49S158.49,259,158.49,259l4.32-.8s2-5.88,7.94-6.54,19.52,2.77,37.32-3.79c15.64-5.75,38.52-18.86,46.09-24.25a16,16,0,0,0,2.21-1.77,26.48,26.48,0,0,1,8.3-5.36l2.6.43,1.71.29,5.26.88S279.07,230.16,266.14,261.17Z"/><path class="cls-14" d="M266,410.31s-31,35.74-38.34,45.25-30.46,25.36-43,28.93c-.32.09-.64.18-.93.23-11.95,2.95-18-4.41-18-4.41s0-2.49,0-6.43c0-5.23,0-13,.24-20.75.25-10.34.81-20.65,1.94-24.94,1.93-7.31,29.3-59.87,43.46-86.81,5-9.52,8.37-15.85,8.37-15.85,37.88,21.21,45.41,76,46.26,83.83a1.88,1.88,0,0,1,0,.31.7.7,0,0,1,0,.23c0,.12,0,.2,0,.27A.79.79,0,0,0,266,410.31Z"/><path class="cls-8" d="M277.15,218.44s17.72,9.9,24.47,10.95,19.05-12.17,19.05-12.17S305.71,221.34,277.15,218.44Z"/><path class="cls-8" d="M264.67,216.49s7.52,52.3-29.49,90.62c0,0,34.54-28,42-88.67Z"/><path class="cls-8" d="M317.62,219.17s12.8,38.36,13.69,67.34c0,0,6.73-33.17-5.31-66.7l-5.33-2.59Z"/><path class="cls-8" d="M214.44,335.25s26.11,13.82,46.51,80.83l5-5.77s-5.75-67.05-46.37-84.78Z"/><path class="cls-8" d="M340.1,352.06s-24.44,46.59-58.29,58.06l1.64,4s35.33-6.78,57.64-43.62Z"/><path class="cls-7" d="M157.16,292.75s-7.86-3.92-6.18-12.49S158.49,259,158.49,259l4.32-.8S180.15,276.64,157.16,292.75Z"/><path class="cls-8" d="M154,285.72s12.44-15.37,4.46-26.73C158.49,259,147.89,281,154,285.72Z"/><path class="cls-9" d="M161,267.82s-.85-12-11.06-16.55l-1.19,5.41s-13.36-11.47-25.23-4.17c0,0,1.58,23.81,32.31,31A25.23,25.23,0,0,0,161,267.82Z"/><path class="cls-10" d="M175.44,411s-3.48,16.8,18.67,30.19,40.24,6.07,40.24,6.07-8,10.8-13.95,15.6-40.5-3.6-54.08-22.75c0,0,0-9,2.05-13.77S175.44,411,175.44,411Z"/><path class="cls-10" d="M289.91,436.2s15,12.66,32.7,18.3a45.21,45.21,0,0,0,32.14-1.85s-4.4,11.52-10.77,18.29c0,0-20.3,1.45-31.51-3.63S293,451.48,293,451.48Z"/><path class="cls-10" d="M212.69,246s32.58,33.56-1.47,73.54A43.64,43.64,0,0,0,225.84,313c10.46-6.88,32.92-60.86-.93-72.81Z"/><path class="cls-15" d="M282,410.27l-.47-.3c.21-.33,21.22-33.6,26.74-58.64,4.77-21.68,3.89-33,2.67-48.77-.46-5.94-1-12.68-1.22-20.73a356.05,356.05,0,0,0-5.37-51.69l.55-.11a357.4,357.4,0,0,1,5.39,51.79c.24,8,.75,14.76,1.21,20.7,1.22,15.77,2.1,27.17-2.69,48.93C303.32,376.59,282.26,409.94,282,410.27Z"/><path class="cls-16" d="M299.11,483.71l-1.47-.32c-2-18-6.84-52.65-15.85-73.26L266,410.3s-31,35.74-38.34,45.26-30.46,25.36-43,28.92c-.32.09-.64.19-.93.24l-18.09-10.85c0-5.23,0-13,.24-20.75l1.44-.6s19.56,17.87,39.19,14,46.71-54.61,45.1-63.07c-6-31.62-28.29-52.71-40.33-62.07l8.37-15.85s2.47-3.48,7.3-13.18c-9.74,6.45-20.21,9.77-30.6,8-23.19-4-35.19-21.09-38.28-26.17,3.45,5.35,18.2,24.58,51.48,22.3a36,36,0,0,0,18.79-7c24.47-17.51,33.77-62.36,33.82-71.7a21.39,21.39,0,0,0-.39-4.21v0c-1.61-7.89-7.53-9.95-7.53-9.95a16.38,16.38,0,0,0,2.2-1.78,26.6,26.6,0,0,1,8.3-5.36l2.6.44c.06.89.17,2.08.26,3.53a211,211,0,0,1-1.38,40.72v0c-1.43,10.37-3.95,21.17-8.17,30.8-14,32-19.24,37.73-19.24,37.73S259,377.06,274,387.43s49.76-13.79,57.91-24.57c3.89-5.11,6.48-8.62,8.18-10.87-.08,3.58-.25,7.18-.56,10.8,0,0,.87,4.2,2.15,10.84-8,11.3-35.14,50.4-39.3,65.31C297.52,456.48,299.11,483.71,299.11,483.71Z"/><path class="cls-17" d="M264.67,216.48s10.72,27.58,39.25,41.12S334,221.44,334,221.44l-8-1.63-4.36-1Z"/><path class="cls-7" d="M295.16,499.67l2.12-5L295.68,482s27.78,9,46.35,4.51a50.89,50.89,0,0,1-22.79,14.77s15.71,5.21,16.88,21.18Z"/><path class="cls-7" d="M203.56,479.11,179,489.54l-1.16,5.27s-13,18.51-35.21,20.77c0,0,1.29-19.05,21.36-30.91l-.23-27.44a45.9,45.9,0,0,0,14.83,18C188.79,482.47,202.37,479.4,203.56,479.11Z"/><polygon class="cls-5" points="295.16 499.67 292.85 502.21 334.94 525.15 336.11 522.5 295.16 499.67"/><path class="cls-18" d="M342,486.55a50.89,50.89,0,0,1-22.79,14.77s-16.87-2.69-24.08-1.65l2.12-5L295.68,482S323.46,491.06,342,486.55Z"/><path class="cls-19" d="M203.56,479.11,179,489.54a33.57,33.57,0,0,1-15-4.87l-.23-27.44a45.9,45.9,0,0,0,14.83,18C188.79,482.47,202.37,479.4,203.56,479.11Z"/><path class="cls-20" d="M130.76,269s10.27,8.6,19.58,7.8,10.37-10.66,10.37-10.66,2.14,7.65-4.93,17.32C155.78,283.49,138.41,279.78,130.76,269Z"/><path class="cls-21" d="M442.47,235.23a50.1,50.1,0,0,1-9.77,6.39A26.83,26.83,0,0,1,426,225.09s.48-1.76,1.33-4.36C427.35,220.73,428.32,230.73,442.47,235.23Z"/><path class="cls-7" d="M298,272a14.76,14.76,0,1,1-11.24-17.59A14.76,14.76,0,0,1,298,272Z"/><path class="cls-9" d="M292.61,270.79a9.28,9.28,0,1,1-7.06-11.05A9.27,9.27,0,0,1,292.61,270.79Z"/><path class="cls-7" d="M230.43,237.58s15.79,13.5,21.51-12.46C251.94,225.12,236.43,234.35,230.43,237.58Z"/><path class="cls-15" d="M287,425.4v-.56c.51,0,50.81.63,63.4-14.46l.43.36C338.12,426,289.12,425.43,287,425.4Z"/><path class="cls-15" d="M249.78,430.06a86.89,86.89,0,0,0-6.12-26.14c-8.73-21.26-41.5-44.51-41.83-44.75l.33-.45c.33.23,33.23,23.57,42,45A87.9,87.9,0,0,1,250.35,430Z"/><path class="cls-15" d="M174.88,311.63l-.52-.21c10.17-24.92,8.59-39.79,5.47-47.89-3.36-8.71-9.15-11.6-9.2-11.63l.24-.51c.25.12,6,3,9.48,11.94C183.51,271.52,185.12,286.54,174.88,311.63Z"/><path class="cls-15" d="M409.32,276c-21.8-23.81,1.23-59.33,1.47-59.69l.47.31c-.24.35-23,35.51-1.52,59Z"/><path class="cls-22" d="M278.29,312.41a39.56,39.56,0,0,1-3.59,9.39L268,319.58a17.81,17.81,0,0,1,5.12-8.81Z"/><path class="cls-22" d="M184.85,254.75a15.44,15.44,0,0,0,7.25-.55l3,2.81s-4.87,3.79-9,1.41Z"/><path class="cls-22" d="M189.54,412.65a20.83,20.83,0,0,0-4.91,8.8l4.76,3.19,4.19-8.81Z"/><path class="cls-22" d="M420,212.18a12,12,0,0,0-4.47,5.95l-4.6,1.55a18.29,18.29,0,0,1,2.47-3.77C414.93,214.17,420,212.18,420,212.18Z"/><path class="cls-22" d="M346,425.52s4.25,11.29,3.85,17l5-.8s.78-8.85-3-16.67Z"/><path class="cls-23" d="M393,170.14c-.15.32-.26.64-.43,1-5.59,7.22-25.56,26.76-63.83,23-47.06-4.63-58.22-43.18-58.22-43.18l-9.11-.33c-.55-5.83-1.32-11.14-2.23-16-5-27.14-14.33-39.32-14.57-43.31-.29-4.69,7.16-32.3,38.9-47.45,21.05-10,42.13-10.62,57.37-8.89a110.6,110.6,0,0,1,20.34,5.55,48.9,48.9,0,0,1,10,5.14l1.13.83a18.64,18.64,0,0,1,2.09,1.79c14.08,13.78,21.22,33.19,24.12,52.8C402.73,128.75,398.36,156.85,393,170.14Z"/><path class="cls-24" d="M393,170.14c-.15.32-.26.64-.43,1-5.59,7.22-25.56,26.76-63.83,23-47.06-4.63-58.22-43.18-58.22-43.18l-9.11-.33c-.55-5.83-1.32-11.14-2.23-16-5-27.14-14.33-39.32-14.57-43.31-.29-4.69,7.16-32.3,38.9-47.45,21.05-10,42.13-10.62,57.37-8.89a110.6,110.6,0,0,1,20.34,5.55,48.9,48.9,0,0,1,10,5.14l1.13.83a18.64,18.64,0,0,1,2.09,1.79c14.08,13.78,21.22,33.19,24.12,52.8C402.73,128.75,398.36,156.85,393,170.14Z"/><g class="cls-25"><path class="cls-26" d="M338.28,195.42c-3.06,0-6.24-.16-9.58-.48-43.88-4.32-57.08-38.28-58.77-43.2l-9.25-.33-.07-.75c-.53-5.55-1.28-10.9-2.23-15.9a138.5,138.5,0,0,0-12-36.68c-1.51-3.2-2.5-5.31-2.59-6.72-.38-6.06,8.51-33.54,39.39-48.28,21.72-10.36,43.44-10.59,57.83-9a112.2,112.2,0,0,1,20.55,5.61A49.56,49.56,0,0,1,371.77,45l1.14.84a22,22,0,0,1,2.18,1.86c12.8,12.53,21,30.46,24.37,53.3,3.94,26.56.15,55.07-5.63,69.5l-.14.33c-.1.24-.2.48-.32.71C390,175.84,373,195.42,338.28,195.42Zm-76-45.66,9,.32.17.59c.11.38,11.58,38.06,57.5,42.57,40.26,4,59.6-18.19,63.07-22.67,0,0,.09-.25.17-.44l.14-.31c5.69-14.23,9.42-42.36,5.53-68.62-3.32-22.46-11.35-40.07-23.87-52.33a21.94,21.94,0,0,0-2-1.71l-1.13-.83a48.69,48.69,0,0,0-9.83-5,109.53,109.53,0,0,0-20.18-5.5c-14.11-1.6-35.49-1.37-56.85,8.81C251.76,60,245.29,87.83,245.5,91.25c.07,1.09,1.06,3.2,2.43,6.1a140.4,140.4,0,0,1,12.13,37.1C261,139.27,261.7,144.42,262.23,149.76Z"/></g><path class="cls-27" d="M367.48,141.56c0-.29-.05-.46-.05-.46-.11-1-.18-2.08-.23-3.23a66.26,66.26,0,0,0-.05-6.88c.11-4.78.41-10.51.74-17.51A61.2,61.2,0,0,0,367,99.54h0a27.23,27.23,0,0,0-.14-4.24,24.85,24.85,0,0,1,6.16,6.5c1.79-9.25-.56-21.59-4.32-25.36h0s-.17-.24-.44-.59l-.22-.27a21.27,21.27,0,0,0-3-3.25l-.17-.14c.39-.33.72-.67,1.08-1,.16-.14.33-.26.48-.41a1.22,1.22,0,0,0,.15-.17c9.6-9.54,3.73-24.63,3.73-24.63a11.53,11.53,0,0,1-5.14,6.16,27.24,27.24,0,0,0,2.24-12.39,28.08,28.08,0,0,1-3-1.89A107.26,107.26,0,0,1,338.37,43c-1-3.12-2.48-5.69-4.69-7.22-11-7.65-32.31,10.91-32.46,11h0c.89-7.78-3.88-14.47-4-14.58v0h0v0c-3.44,12-8.36,19.81-12.76,24.87.24,1.33.46,2.66.63,3.82,0,.17.05.33.06.49.09.75.1,1.5.15,2.25a30.21,30.21,0,0,1-3.42,15.54l-4.48,6.33a30,30,0,0,1-9.63,6.91C279.35,97.54,287.84,109,284.29,125c-1.63,7.32-2.65,13.16-2.35,20.53.1,2.41.23,4.82.43,7.22,6.1,3.67,16.14,10.17,22.5,12,15.55,4.51,26.41,18.92,22.81,35.55.57.06,1.16.15,1.72.2C342,201.69,356,193.91,365,184.72c4.4-4.45,7.62-9.24,9-13.49,4.19-13.06-4.33-20.27-5.91-26.34A25.75,25.75,0,0,1,367.48,141.56Zm-6.32-58.33L362,84h0a8.51,8.51,0,0,1,.53,2C362.07,85.05,361.67,84.13,361.16,83.23Z"/><path class="cls-28" d="M284.74,186.45a26.31,26.31,0,0,1-1.17,13.48s19.3,16.6,25.5,17.65-.29-9.77-.29-9.77-1.6-6.88-.41-12.51Z"/><path class="cls-29" d="M247.18,90.31c-8.05,26.58,1.25,64.47,17.22,81.63s42.45,26.41,62.51,28.36c12.68,1.25,26.7-6.35,35.74-15.35,4.39-4.36,7.61-9.06,9-13.24,4.15-12.83-4.44-20-6.07-26a27.26,27.26,0,0,1-.64-3.28,2.39,2.39,0,0,0,0-.45c-.71-6-.23-14.54.33-27.2.68-15.59-4.15-31-17.93-43.15C316.92,44.89,255.23,63.74,247.18,90.31Z"/><path class="cls-30" d="M247.18,90.31c-8.05,26.58,1.25,64.47,17.22,81.63s42.45,26.41,62.51,28.36c12.68,1.25,26.7-6.35,35.74-15.35v0s-12.12,5.61-23.65,5.88-36.56-6.5-50.66-20.74-18.79-30.24-16.7-32.8,6.43.8,6.43.8S297.2,161.48,316,154.11c13.62-5.35,10.86-54.58,2-67.1,0,0-28.33,7.57-36.39,24A34.23,34.23,0,0,1,283,86.81c5.79-12.85,20.72-17.09,36-13.44s20.72,9.86,20.72,9.86,14.55,4,17.66,10.4c0,0-8.32,13.64-11.94,22.63s-.79,27.46,1,30.09,9.93,6.78,14.91,6.49c4.35-.24,3.77-8.35,3.54-10.36a2.39,2.39,0,0,0,0-.45c-.71-6-.23-14.54.33-27.2.68-15.59-4.15-31-17.93-43.15C316.92,44.89,255.23,63.74,247.18,90.31Z"/><path class="cls-31" d="M240.94,104.5l0,0c0,18.58,6.65,38.53,6.65,38.53,6.14,1.18,15.21,10.35,15.86,11-.36-1-6.43-16.65-5.28-24.19,1.17-7.8,5.61-21.26,5.61-21.26l.56-11.07c.65-12.2,10.85-20.33,10.85-20.33,11.22.9,15.61-9.3,15.61-9.3s4.59-5.23,16.2-4,29.11,14.49,29.11,14.49c6.14,1.27,14.48-.4,14.48-.4,3.92,2.53,9.21,8.61,9.21,8.61,6.71,4,12.24,11,12.24,11a30.5,30.5,0,0,0-10-23.42c11.78-9.45,7.56-23.36,7.56-23.36a12.72,12.72,0,0,1-7.35,3.63c3.33-6.93,1.93-15,1.93-15-18.67,8.33-44.62,5.94-44.62,5.94-9.85-2.1-21.68,3.52-21.68,3.52.87-7.72-4.06-14.4-4.06-14.4C293.8,45,282.61,60,275.43,63.09s-24.19,4-31.88,24.41A49,49,0,0,0,240.94,104.5Z"/><path class="cls-32" d="M317.91,87a18.49,18.49,0,0,1-3.65,9.9s-14.73,1.78-21.8,5.68a41.32,41.32,0,0,0-10.92,8.46S291.59,91.4,317.91,87Z"/><path class="cls-33" d="M360.82,90s-8.57,6.9-14.93,24.88c0,0,11.13-19.93,18.35-13.81C364.24,101.11,364.79,92.29,360.82,90Z"/><path class="cls-34" d="M322.26,131.84s-.12-15.09-11.76-19c-9.44-3.16-20.47,4.26-24.36,20.38Z"/><path class="cls-35" d="M334.55,153.53s6.24-7.59,10.09-6.77S355,154.59,355,154.59a14,14,0,0,1-8.92,2.67C340.47,157.13,334.55,153.53,334.55,153.53Z"/><path class="cls-36" d="M320,147.28c4.48-8.09,3.71-25.51-9.08-30.92S284.5,127,285.74,138.75C286.93,150.05,314.19,157.76,320,147.28Z"/><path class="cls-37" d="M355,154.59s-3.58,2.23-10.44,1.28c-8.49-1.18-10-2.34-10-2.34s-2.9,2.05.22,4.21c2.07,1.44,8.28,7,15.14,6C353,163.32,356.51,157,355,154.59Z"/><path class="cls-38" d="M364.09,143.94c-.78,4.06-2.59,7.31-5.85,7a15.18,15.18,0,0,1-12.55-11.78c-1.15-5.54,5.21-23.71,12.45-23.6C364.3,115.64,365.61,136,364.09,143.94Z"/><g class="cls-39"><path class="cls-40" d="M304.83,137.07c-.05,9.82,4.48,17.79,10.12,17.82s10.24-7.91,10.29-17.72-4.48-17.8-10.12-17.83S304.87,127.25,304.83,137.07Z"/><path class="cls-41" d="M308.6,136.64c0,7.15,3.26,13,7.37,13s7.47-5.77,7.5-12.92-3.26-13-7.37-13S308.63,129.48,308.6,136.64Z"/></g><g class="cls-42"><path class="cls-43" d="M354.45,138.5c.25,8.5,3,15.32,6.22,15.23s5.56-7.07,5.31-15.57-3-15.32-6.21-15.23S354.2,130,354.45,138.5Z"/><path class="cls-41" d="M357.63,138.36c.18,6.2,2.21,11.17,4.53,11.1s4.06-5.15,3.88-11.34S363.83,127,361.51,127,357.45,132.16,357.63,138.36Z"/></g><path class="cls-44" d="M344,129.24s.53,13.52,3.81,17.54c2.73,3.35,5.77,4.82,7.81,6.39s-.19,9-5.7,10.6c0,0,6.94-4.78,5.09-9.18-.79-1.87-7.27-4.11-9.19-8.5C343.11,139.9,344,129.24,344,129.24Z"/><path class="cls-45" d="M342.4,161.41s4.31-3.2-7.26-3.85c0,0,1.59.63,4,1.77A10.35,10.35,0,0,1,342.4,161.41Z"/><path class="cls-46" d="M350.91,170.73a12.26,12.26,0,0,1-5,1.28c-2.84.08-15.26-3.39-20.71-5.06a36.74,36.74,0,0,1-9-4.1l-1.13.82a75.22,75.22,0,0,0,15.72,10.44c8.33,3.87,12.65,4,14.45,3.76s5.24-5.58,5.24-5.58Z"/><path class="cls-47" d="M348.06,171.73s-2.44,4.68-4.54,5.33-11.84-2.14-17.72-6.18l-4.05-5.15S342.18,173.07,348.06,171.73Z"/><path class="cls-48" d="M318.9,161.47l-1.72-1.64a13.38,13.38,0,0,0-5.15,6.44S317.36,161.79,318.9,161.47Z"/><path class="cls-22" d="M298.59,128.68a2.43,2.43,0,1,0,3.07-1.57A2.43,2.43,0,0,0,298.59,128.68Z"/><path class="cls-22" d="M351.62,126.14a2.08,2.08,0,1,0,2.61-1.33A2.08,2.08,0,0,0,351.62,126.14Z"/><path class="cls-34" d="M363.49,124s-1-8.69-5.78-10-12.4,14.68-12.15,23.36c0,0,3.84-16.87,13.18-19.3C358.74,118.11,361.76,118.67,363.49,124Z"/><path class="cls-49" d="M293.75,34.5s5.86,12.79-1.66,28.17-21.23,4.41-21.23,4.41S286.12,60.92,293.75,34.5Z"/><path class="cls-50" d="M364.12,39.44S362.8,56,352.56,61.94,323,45.57,323,45.57,344.71,46.7,364.12,39.44Z"/><path class="cls-51" d="M362,74.18l-11.39,3.76,8.52,7.85a20.76,20.76,0,0,0,6.73-7.42A25,25,0,0,0,362,74.18Z"/><path class="cls-52" d="M369.53,50.81s-3.21,7.42-15.33,14.54-18.11,13-18.11,13,18.55,3.08,27.45-5.55S369.53,50.81,369.53,50.81Z"/><path class="cls-53" d="M240.94,104.5l0,0c0,18.58,6.65,38.53,6.65,38.53,6.14,1.18,15.21,10.35,15.86,11-.36-1-6.43-16.65-5.28-24.19,1.17-7.8,5.61-21.26,5.61-21.26l.56-11.07c.65-12.2,10.85-20.33,10.85-20.33S265.09,76.26,260.1,74c0,0,4.95,5.67,7.82,6.71,0,0-3.53,13.21-11.38,22.32S240.94,104.5,240.94,104.5Z"/><path class="cls-54" d="M259.87,150.12s-10.39-9.75-22.7-8.15-8.6,26,6.9,35.44,23.14.36,23.64-3.94S259.87,150.12,259.87,150.12Z"/><path class="cls-55" d="M261.59,161.36s-9.07-9.58-18.11-9.44-6.08,15.25-6.08,15.25.85-2,4-2a30.68,30.68,0,0,0,12.73,9.4s-10.29-6.54-11.27-11.7c0,0,6.78,10,14.23,8.75S261.59,161.36,261.59,161.36Z"/><path class="cls-44" d="M261.53,168.53s-9.39,0-12-4.17a6.57,6.57,0,0,1,.44-7.7s7.37,1.07,10.64,5.7C260.58,162.36,262.32,165.68,261.53,168.53Z"/><path class="cls-56" d="M284,153.17a3,3,0,1,0,3.82-1.95A3,3,0,0,0,284,153.17Z"/><path class="cls-57" d="M335,78.71s6.61-32.93-4.56-40.54S297.82,48.9,297.82,48.9s-1,7.85-3.22,12.77c0,0,14.8-6.45,26.63-2.55S335,78.71,335,78.71Z"/><path class="cls-27" d="M331.75,39.22c2.12,2.62,3.31,5.29,4.6,10.41,2.4-2.18,2-6.64,2-6.64Z"/><polygon class="cls-27" points="361.98 74.17 359.71 75.58 364.87 74.32 361.98 74.17"/><path class="cls-27" d="M297.31,42.28c.84,4.1.15,8.7-1.44,13.61.87.18,5.18-9.7,5.18-9.7Z"/><path class="cls-58" d="M377.89,44a17.69,17.69,0,0,0-2.23-1.91l-1.19-.88a51.15,51.15,0,0,0-10.69-5.48,119.69,119.69,0,0,0-21.69-5.93c-26.07-4.78-59.65-4.33-83.71,4.05C226.49,45,209.67,71.15,200.72,92a174,174,0,0,0-7,19.8c-5.7,19.45,11.31,76.83,41.44,93.81s74.09,15.34,103.09,8.25a114.85,114.85,0,0,0,45.47-23,9.73,9.73,0,0,0,1-.87c6-5.19,10.34-10.49,12.5-15.05.17-.35.28-.68.45-1C407.35,149.76,414.09,79.42,377.89,44ZM393,170.15c-.13.29-.23.62-.4.94-5.59,7.22-25.56,26.75-63.82,23-47.07-4.65-58.25-43.2-58.25-43.2l-9.09-.33c-.56-5.83-1.32-11.13-2.23-16-5-27.13-14.34-39.31-14.59-43.3-.29-4.7,7.17-32.28,38.92-47.45,21.05-10,42.11-10.63,57.37-8.88a110.3,110.3,0,0,1,20.32,5.53,48.74,48.74,0,0,1,10,5.15l1.14.83a23.46,23.46,0,0,1,2.09,1.78c14.08,13.81,21.2,33.21,24.11,52.81C402.72,128.74,398.37,156.84,393,170.15Z"/><path class="cls-59" d="M393,170.14c-.15.32-.26.64-.43,1-5.59,7.22-25.56,26.76-63.83,23-47.06-4.63-58.22-43.18-58.22-43.18l-9.11-.33c-.55-5.83-1.32-11.14-2.23-16-5-27.14-14.33-39.32-14.57-43.31-.29-4.69,7.16-32.3,38.9-47.45,21.05-10,42.13-10.62,57.37-8.89a110.6,110.6,0,0,1,20.34,5.55,48.9,48.9,0,0,1,10,5.14l1.13.83a18.64,18.64,0,0,1,2.09,1.79c14.08,13.78,21.22,33.19,24.12,52.8C402.73,128.75,398.36,156.85,393,170.14Z"/><path class="cls-60" d="M393,170.14c-.15.32-.26.64-.43,1-5.59,7.22-25.56,26.76-63.83,23-47.06-4.63-58.22-43.18-58.22-43.18l-9.11-.33c-.55-5.83-1.32-11.14-2.23-16-5-27.14-14.33-39.32-14.57-43.31-.29-4.69,7.16-32.3,38.9-47.45,21.05-10,42.13-10.62,57.37-8.89a110.6,110.6,0,0,1,20.34,5.55,48.9,48.9,0,0,1,10,5.14l1.13.83a18.64,18.64,0,0,1,2.09,1.79c14.08,13.78,21.22,33.19,24.12,52.8C402.73,128.75,398.36,156.85,393,170.14Z"/><path class="cls-61" d="M383.67,190.93a115.44,115.44,0,0,1-45.44,23c-29,7.1-73,8.72-103.1-8.27s-47.14-74.35-41.44-93.8a171.52,171.52,0,0,1,7-19.8c3.45-4.4,8.06-7.29,14.2-6.88C237.49,86.66,251,157.85,251,157.85l10.65-2s11.31,40.45,56.53,49.46C357.71,213.15,378.82,194.7,383.67,190.93Z"/><path class="cls-62" d="M221.46,194.32c11.68,8.16,30.46,2.14,28.54-34.82s-26.62-70.44-26.62-70.44c30.82-.16,34,64.06,34,64.06-.26,2.77-.56,5.36-.92,7.79l0,.27C249,212.83,223.67,195.9,221.46,194.32Z"/><path class="cls-8" d="M192.76,117.28c1.72-12.89,8.56-22.27,15.75-22.88s30,29.25,30,66S214.15,188.15,208,174.89l-3.57-7.19s20.21,20.9,26.82-2.29c7.56-26.49-17-56.42-27.29-50.86s-8.77,26.21-8.77,26.21S191.62,125.83,192.76,117.28Z"/><path class="cls-22" d="M260.24,89.15s-1.12-10.84-.38-14.2a45.8,45.8,0,0,1,14.63-10.31L283.09,83S265.1,87,260.24,89.15Z"/><path class="cls-22" d="M280.49,151.31s3.44,8.94,8.29,13.91l5-3.65s-5.07-7.81-7.45-12.61Z"/><path class="cls-63" d="M397.66,174c-.15.34-.28.69-.45,1-6,7.7-27.26,28.53-68.06,24.52-50.18-4.94-62.08-46-62.08-46l-9.71-.35c-.59-6.21-1.4-11.88-2.38-17l0,0s70.11-87.52,148.6-35.73C408,129.85,403.33,159.81,397.66,174Z"/><path class="cls-64" d="M353,84.72c.94,6.08-9.28,12.71-22.84,14.8s-25.3-1.15-26.24-7.24,9.29-12.71,22.84-14.8S352.05,78.63,353,84.72Z"/><path class="cls-22" d="M265.32,45.61s26.54-14.13,44.51-15.95C309.83,29.66,245.45,29.89,265.32,45.61Z"/><polygon class="cls-22" points="237.31 113.17 247.51 108.9 251.65 120.09 241.67 123.31 237.31 113.17"/><polygon class="cls-3" points="334.13 286.5 328.45 261.8 331.31 286.51 334 297.7 334.13 286.5"/><g class="cls-65"><path class="cls-66" d="M65.87,421.91a69.31,69.31,0,0,0,14.88,5.19c26.57,5.85,47.18-8.4,67.21-22.25,8.89-6.15,18.08-12.5,27.56-16.84a74.68,74.68,0,0,1,13.9-4.77c-9.64,18.81-18.5,36.55-21.06,43.12-2,4.65-2,13.24-2,13.73-.25,4-.42,8.52-.53,13h0c0,1.32-.07,2.65-.09,4-1.2,0-1.89.13-1.89.13v0h0l.23,27.44c-20.07,11.87-21.36,30.9-21.36,30.9h0c18.24,4.55,33.74-18.56,35.07-20.62l.1-.14,1.17-5.27,21.69-9.22a16.49,16.49,0,0,0,2.93-1.23c-.62-1-1.26-1.91-1.89-2.8a140.23,140.23,0,0,0,18.74-13.51c.93-.76,1.92-1.67,2.92-2.66a47.5,47.5,0,0,0,3.69-3.94c3.92-4.45,7.22-8.89,7.24-8.91,4.44-5.33,10.08-12,15.37-18.13,0,.58.05.9.05.92l.57,0s0-.57-.11-1.5c8.37-9.78,15.71-18.23,15.71-18.23h1.17l14.68-.16c.15.35.29.71.44,1.06l.87,2.14c1.42,3.63,2.74,7.6,3.94,11.78v.28h.08c1,3.53,1.94,7.21,2.81,10.94l3.07,15c2.06,11.36,3.5,22.23,4.43,30.29-.58.13-1.15.25-1.75.4h0l1.6,12.63-2.12,5,41,22.84c0-16.23-14.37-21.17-14.37-21.17A53.81,53.81,0,0,0,339,492.27a40.66,40.66,0,0,0,6.11-5.71h0c0-.05-2-2.64-7.41-4.77,9.78-10.33,20.11-23.55,21.58-34.57,2.14-16.13-10.75-54.3-14.5-73.59-.22-1.13-.42-2.19-.62-3.16l-1-18.41V352c.7-34.7-9-65.49-9-65.49.17-1.44.32-2.83.47-4.21.27-2.68.45-5.26.57-7.76,6.27,7.45,15.73,16.3,26.73,18.72h0c.85.19,1.7.33,2.56.44a25.28,25.28,0,0,0,3,.18,40.52,40.52,0,0,0,10.73-1.58h0a49.44,49.44,0,0,0,10.45-3.73c3.1-1.44,5.34-2.71,5.34-2.71A108.88,108.88,0,0,0,409.31,276h0l.14-.13c11.09-8.55,19.82-18.73,21.66-27.14h0c4.27-.77,5.64-4.09,5.51-8.3a58.81,58.81,0,0,0,7.94-5.25c6.06-4.7,13.06-12,16.32-22.18,5.64-17.56-2.08-18.48-2.08-18.48-15.35,1.26-19.13,6.93-19.13,6.93l-2.42-3.52c-3.47,3.15-7.18,9.17-9.57,14.57-1.49-1.78-3.76-3.9-6.07-3.89-3.92,0-9,6.14-24.5,12.2s-47.21,4.24-56.86.54a63.83,63.83,0,0,0-8-2.44c3.66-.67,7.18-1.42,10.5-2.26a113.9,113.9,0,0,0,45.46-23.53,10.68,10.68,0,0,0,1-.89c6-5.33,10.33-10.76,12.5-15.43.17-.36.27-.7.45-1.06,9.68-24.83,16.43-96.94-19.77-133.22a18.64,18.64,0,0,0-2.23-2l-1.19-.9a50.7,50.7,0,0,0-10.69-5.62A117.83,117.83,0,0,0,346.65,28c-26.08-4.89-59.65-4.43-83.72,4.16-1.47.52-2.9,1.09-4.3,1.67l-.25.09C226.5,45,209.66,71.15,200.72,92c-1.82,4.23-3.31,8.23-4.53,11.86l-.16.48c-.21.6-.4,1.2-.59,1.77-.08.24-.15.47-.23.7-.2.64-.4,1.27-.58,1.87a0,0,0,0,0,0,0c-.33,1.08-.66,2.12-.93,3.09a28,28,0,0,0-1,5.87,51.72,51.72,0,0,0,.37,11.34c1.57,13.63,6.82,31,15.06,46.21.25.51.52,1,.82,1.51,6.89,12.3,15.74,23,26.16,28.88,9.54,5.38,20.47,8.88,31.86,11l-2.27-.1h0a26.39,26.39,0,0,0-8.3,5.36,17.85,17.85,0,0,1-2.19,1.77h0c-.64.44-1.39.95-2.22,1.5,0,0-3.88,2.31-8.5,5s-10,5.83-13,7.44c-1.75.92-3.52,1.83-5.3,2.71l-.23-.08L212.69,246c-1.59.66-3.13,1.28-4.62,1.82-17.32,6.38-30.59,3.32-36.81,3.75l-.39-.22-.12.26c-6,.66-7.94,6.54-7.94,6.54l-4.32.8-.16.34a17.78,17.78,0,0,0-8.45-8.07l-1.18,5.41s-13.36-11.45-25.22-4.16a35.31,35.31,0,0,0,18,25.54,49.54,49.54,0,0,0,9.24,4.05c-.33,7.28,6.4,10.65,6.4,10.65l.3.52a3,3,0,0,1,.23.42c.09.13.19.3.29.48a59.19,59.19,0,0,0,16.4,17.19l0,.05.25.11a54.29,54.29,0,0,0,21.66,8.81,35.24,35.24,0,0,0,15-.76h0A43.64,43.64,0,0,0,225.84,313l.09-.07c.31-.19.62-.38.92-.58-4.82,9.68-7.29,13.16-7.29,13.16L211.93,340c-17.34-.77-41-5.69-72.78-18.94-52.35-21.82-84.37.64-95.88,26.48C32,372.79,37.45,408.42,65.87,421.91ZM49.43,350.26c10.77-24.18,39.31-42.92,87.13-23,30.53,12.72,54,18,71.95,19.23-2,3.84-4.22,8.05-6.51,12.45l-.17.23,0,0c-2.74,5.25-5.61,10.78-8.47,16.32a82,82,0,0,0-20.69,6.36c-10,4.58-19.46,11.11-28.59,17.42-23.06,15.95-44.83,31-75.36,16.52C44,404.07,39.46,372.64,49.43,350.26Z"/></g></g></g></svg>